<svg width="45" height="45" viewBox="0 0 45 45" fill="none" xmlns="http://www.w3.org/2000/svg">
<path d="M41.7274 40.0597C42.9711 42.3677 41.3219 44.0135 39.6707 44.0135H32.5207C28.6712 44.0135 28.6712 44.5634 26.4709 41.2698L22.9143 35.2327H13.8221V41.2698C13.8221 42.7859 12.5901 44.0135 11.0708 44.0135H2.82068C1.30143 44.0135 0.0712891 42.7859 0.0712891 41.2698V2.84911C0.0712891 1.33498 1.30143 0.105469 2.82068 0.105469H29.2203C37.4238 0.105469 44.0713 7.96852 44.0713 17.6691C44.0713 23.8747 41.351 29.3291 37.2415 32.4522L41.7274 40.0597Z" fill="#9491C0"/>
<path d="M9.59431 23.3073V21.4233H4.4603C3.81224 21.4233 3.32717 21.2781 3.00314 20.9877C2.67911 20.6972 2.51807 20.3022 2.51807 19.8027C2.51807 19.6749 2.54135 19.5452 2.58986 19.4135C2.63837 19.2818 2.70822 19.1444 2.80523 18.9992C2.9003 18.8539 2.99926 18.7145 3.10209 18.579C3.20493 18.4435 3.33105 18.2789 3.48045 18.0833L8.90163 10.9018C9.2567 10.4294 9.54774 10.0867 9.7767 9.87368C10.0057 9.66069 10.2792 9.5542 10.5994 9.5542C11.6355 9.5542 12.1536 10.1409 12.1536 11.3162V19.156H12.594C13.1198 19.156 13.5409 19.2276 13.8571 19.369C14.1734 19.5103 14.3325 19.8221 14.3325 20.3003C14.3325 20.6914 14.2025 20.978 13.9444 21.1561C13.6844 21.3343 13.2964 21.4253 12.7783 21.4253H12.1536V23.3092C12.1536 23.8301 12.0371 24.2154 11.8062 24.469C11.5734 24.7227 11.2649 24.8485 10.8749 24.8485C10.4849 24.8485 10.1842 24.7188 9.94939 24.4593C9.71461 24.1999 9.59625 23.8165 9.59625 23.3092L9.59431 23.3073ZM5.19567 19.1541H9.59431V13.2698L5.19567 19.1541Z" fill="white"/>
<path d="M31.5954 22.2035H36.9351C37.4667 22.2035 37.8722 22.312 38.1516 22.5269C38.431 22.7438 38.5707 23.0361 38.5707 23.4079C38.5707 23.739 38.4601 24.0197 38.2389 24.2482C38.0178 24.4786 37.6801 24.5929 37.2319 24.5929H29.7036C29.1914 24.5929 28.7936 24.4535 28.5064 24.1727C28.2193 23.8919 28.0776 23.5628 28.0776 23.1852C28.0776 22.9413 28.1688 22.6198 28.3532 22.2171C28.5375 21.8163 28.7393 21.4988 28.9566 21.2703C29.8627 20.339 30.6815 19.5393 31.4111 18.8752C32.1406 18.211 32.6625 17.7734 32.9769 17.5643C33.5357 17.1732 34.0013 16.7802 34.3739 16.3852C34.7464 15.9902 35.0278 15.5855 35.2218 15.1692C35.4158 14.7529 35.5128 14.3463 35.5128 13.9494C35.5128 13.5176 35.4081 13.1303 35.2004 12.7896C34.9928 12.4488 34.7096 12.1835 34.3506 11.9938C33.9916 11.804 33.6016 11.7111 33.1787 11.7111C32.2842 11.7111 31.5837 12.1003 31.0715 12.8767C31.0036 12.9774 30.8891 13.2543 30.7281 13.7073C30.569 14.1604 30.3866 14.507 30.1867 14.751C29.9849 14.993 29.69 15.115 29.302 15.115C28.9605 15.115 28.6791 15.0027 28.4541 14.78C28.229 14.5574 28.1164 14.2534 28.1164 13.8681C28.1164 13.4014 28.2212 12.9154 28.4327 12.4101C28.6442 11.9028 28.9585 11.4439 29.3796 11.0334C29.7987 10.621 30.3303 10.2899 30.9745 10.0362C31.6187 9.78259 32.3734 9.65674 33.2408 9.65674C34.2846 9.65674 35.1733 9.81938 35.9106 10.1427C36.3879 10.3596 36.807 10.6558 37.1679 11.0334C37.5288 11.411 37.8101 11.8486 38.0119 12.3442C38.2137 12.8399 38.3127 13.3549 38.3127 13.8894C38.3127 14.7258 38.1031 15.4887 37.684 16.1741C37.2649 16.8595 36.8361 17.3959 36.3995 17.7851C35.963 18.1742 35.2315 18.7822 34.2051 19.6129C33.1787 20.4435 32.4743 21.0883 32.094 21.5472C31.9311 21.7292 31.7622 21.9499 31.5934 22.2055L31.5954 22.2035Z" fill="white"/>
<path d="M16.4149 15.9458H25.4198C26.0872 15.9458 26.6286 16.486 26.6286 17.1521V17.5935C26.6286 18.2596 26.0872 18.7998 25.4198 18.7998H16.4149C15.7474 18.7998 15.2061 18.2596 15.2061 17.5935V17.1521C15.2061 16.486 15.7474 15.9458 16.4149 15.9458Z" fill="white"/>
<path d="M20.6971 11.6763H21.1356C21.8031 11.6763 22.3444 12.2165 22.3444 12.8825V21.8686C22.3444 22.5347 21.8031 23.0749 21.1356 23.0749H20.699C20.0316 23.0749 19.4902 22.5347 19.4902 21.8686V12.8825C19.4902 12.2165 20.0316 11.6763 20.699 11.6763H20.6971Z" fill="white"/>
</svg>
