<svg width="85" height="60" viewBox="0 0 85 60" fill="none" xmlns="http://www.w3.org/2000/svg">
<g clip-path="url(#clip0_10079_18981)">
<path d="M2.92083 60.0447C2.56433 60.0447 2.38422 59.8668 2.38422 59.5111V51.8216C1.92003 52.4294 1.44284 52.9778 0.9508 53.4688C0.776264 53.6319 0.627723 53.7079 0.501463 53.693C0.375204 53.6782 0.2508 53.5707 0.124541 53.3669C0.0279889 53.1928 -0.0128598 53.0464 0.00199426 52.9259C0.0168484 52.8055 0.0966892 52.6832 0.241517 52.5572C0.94523 51.892 1.60252 51.1305 2.21154 50.2745C2.84841 49.3777 3.37573 48.4586 3.78979 47.5137C3.92533 47.195 4.15186 47.0857 4.47122 47.182C4.81844 47.2969 4.92056 47.5248 4.77573 47.862C4.41923 48.6532 3.97918 49.4574 3.45743 50.2763V59.5111C3.45743 59.8668 3.27918 60.0447 2.92083 60.0447ZM11.7702 60.0595C10.6505 59.9725 9.75186 59.235 9.07599 57.8491C8.46698 56.6058 8.0195 54.7844 7.72984 52.3868L4.79059 52.7629C4.46194 52.8018 4.27626 52.6517 4.23356 52.3145C4.19085 51.9773 4.33197 51.7901 4.66061 51.7512L7.61472 51.3751C7.50889 50.1022 7.42719 48.8607 7.36777 47.6471C7.3492 47.2821 7.52188 47.0986 7.88952 47.0986C8.22745 47.0986 8.4057 47.2765 8.42613 47.6323C8.49297 49.1257 8.58024 50.3264 8.68607 51.2306L12.4813 50.7395C12.8099 50.7006 12.9975 50.847 13.0458 51.1805C13.094 51.5122 12.9492 51.703 12.6113 51.7512L10.9458 51.968L8.7882 52.2422C9.03886 54.247 9.40093 55.8016 9.8744 56.9096C10.3757 58.1047 10.994 58.7366 11.7275 58.8033C12.0171 58.8125 12.2343 58.3901 12.3792 57.5322C12.4182 57.2339 12.4906 56.9967 12.5964 56.8244C12.732 56.6132 12.8954 56.565 13.0885 56.6799C13.1943 56.7484 13.263 56.8967 13.2908 57.1283C13.3206 57.321 13.3206 57.5044 13.2908 57.6767C13.0105 59.3147 12.5036 60.1096 11.7702 60.0614V60.0595ZM12.0598 49.928C11.954 49.928 11.8519 49.865 11.7553 49.7408C11.3115 49.2109 10.7712 48.6569 10.1325 48.0788C9.84284 47.8379 9.85212 47.6119 10.1622 47.3988C10.3739 47.2543 10.567 47.2543 10.7415 47.3988C11.0794 47.6693 11.4322 47.9862 11.798 48.353C12.1545 48.7106 12.407 48.97 12.5519 49.1331C12.6577 49.2684 12.6985 49.3832 12.6744 49.4796C12.6503 49.5759 12.5667 49.6741 12.42 49.776C12.2752 49.8761 12.1545 49.928 12.058 49.928H12.0598Z" fill="white"/>
<path d="M18.2577 50.145C17.9681 50.145 17.8232 49.9968 17.8232 49.6966C17.8232 49.3965 17.9681 49.263 18.2577 49.263H21.6463C21.936 49.263 22.0808 49.4076 22.0808 49.6966C22.0808 49.9857 21.936 50.145 21.6463 50.145H18.2577ZM19.1991 59.2204C18.9484 59.2204 18.7461 59.1426 18.5901 58.9888C18.436 58.835 18.358 58.6331 18.358 58.3811V55.8945C18.358 55.6444 18.436 55.4424 18.5901 55.2868C18.7442 55.133 18.9466 55.0552 19.1991 55.0552H20.9797C21.2304 55.0552 21.4291 55.1274 21.5739 55.2719C21.7187 55.4165 21.7911 55.6147 21.7911 55.8649V58.3792C21.7911 58.6294 21.7132 58.8332 21.559 58.987C21.4049 59.1408 21.2026 59.2186 20.95 59.2186H19.1972L19.1991 59.2204ZM18.8092 52.0665C18.5288 52.0665 18.3896 51.9219 18.3896 51.6329C18.3896 51.3438 18.5288 51.2141 18.8092 51.2141H21.3437C21.624 51.2141 21.7633 51.3531 21.7633 51.6329C21.7633 51.9127 21.624 52.0665 21.3437 52.0665H18.8092ZM18.824 53.9897C18.5344 53.9897 18.3896 53.8452 18.3896 53.5562C18.3896 53.2671 18.5344 53.1226 18.824 53.1226H21.3288C21.6185 53.1226 21.7633 53.2671 21.7633 53.5562C21.7633 53.8452 21.6185 53.9897 21.3288 53.9897H18.824ZM18.8816 48.2366C18.5919 48.2366 18.4471 48.092 18.4471 47.803C18.4471 47.5139 18.5919 47.3694 18.8816 47.3694H21.301C21.5906 47.3694 21.7354 47.5139 21.7354 47.803C21.7354 48.092 21.5906 48.2366 21.301 48.2366H18.8816ZM19.5036 58.3533H20.6047C20.8071 58.3533 20.9092 58.2514 20.9092 58.0494V56.2428C20.9092 56.0409 20.8071 55.939 20.6047 55.939H19.5036C19.3012 55.939 19.1991 56.039 19.1991 56.2428V58.0494C19.1991 58.2514 19.3012 58.3533 19.5036 58.3533ZM24.6301 60.0728C24.2254 60.0728 23.9784 59.9523 23.8911 59.7114C23.8132 59.5187 23.8484 59.3798 23.9933 59.2927C24.1084 59.2056 24.2885 59.1667 24.5299 59.1778H25.1964C25.371 59.1778 25.4564 59.087 25.4564 58.9036V56.0854C24.6933 57.0674 23.8299 57.9253 22.8644 58.6572C22.6044 58.8499 22.3667 58.8202 22.1551 58.5701C21.9044 58.281 21.9434 58.0309 22.2702 57.8178C23.284 57.0859 24.1474 56.2521 24.8622 55.3183L22.675 55.7945C22.3649 55.8723 22.1774 55.7648 22.1105 55.4776C22.0232 55.1496 22.1439 54.9662 22.4726 54.9292C22.5023 54.9199 22.5376 54.9106 22.5803 54.8995C22.623 54.8902 22.6545 54.8847 22.675 54.8847V49.1611C22.675 48.911 22.7529 48.709 22.9071 48.5534C23.0612 48.3996 23.2636 48.3218 23.5161 48.3218H23.8057C23.9209 47.966 24.0137 47.6307 24.0805 47.3175C24.1474 47.0044 24.3461 46.8821 24.6747 46.9488C25.0423 47.0266 25.1575 47.2378 25.0219 47.5843C24.9829 47.6992 24.9198 47.8734 24.8344 48.105C24.7954 48.2013 24.7675 48.2736 24.7471 48.3218H25.993C26.2344 48.3218 26.3551 48.4422 26.3551 48.6831V53.4672L26.732 53.5821C26.9065 53.6507 26.9548 53.76 26.8768 53.9138C26.732 54.2028 26.5593 54.5104 26.3551 54.8384V58.8999C26.3551 59.4094 26.1954 59.7429 25.8779 59.8967C25.6365 59.9931 25.2206 60.0505 24.632 60.0709L24.6301 60.0728ZM23.5588 50.3322H25.4564V49.4502C25.4564 49.2482 25.3543 49.1463 25.1519 49.1463H23.8633C23.6609 49.1463 23.5588 49.2464 23.5588 49.4502V50.3322ZM23.5588 52.3555H25.4564V51.1567H23.5588V52.3555ZM23.5588 54.7253C23.9543 54.6475 24.5874 54.5234 25.4564 54.3492V53.193H23.5588V54.7253ZM28.3381 60.1024C27.9129 60.1024 27.6567 59.9671 27.5712 59.6985C27.5044 59.4965 27.5415 59.3427 27.6864 59.2353C27.8108 59.1482 28.0002 59.1093 28.2508 59.1204H28.9323C29.1068 59.1111 29.1922 59.0148 29.1922 58.8313V51.418H27.1349C26.8063 51.418 26.6429 51.2493 26.6429 50.9121C26.6429 50.5749 26.8063 50.4211 27.1349 50.4211H29.1922V47.488C29.1922 47.16 29.3556 46.997 29.6842 46.997C30.0129 46.997 30.1763 47.16 30.1763 47.488V50.4211H30.4808C30.8094 50.4211 30.9728 50.5842 30.9728 50.9121C30.9728 51.2401 30.8094 51.418 30.4808 51.418H30.1763V58.8184C30.1763 59.1259 30.1354 59.365 30.0537 59.5336C29.972 59.7022 29.8346 59.8245 29.6415 59.9023C29.4299 60.0079 28.9954 60.0765 28.3381 60.1043V60.1024ZM27.8832 56.2151C27.8015 56.1761 27.7551 56.0798 27.7458 55.926C27.6585 55.0867 27.4561 54.1917 27.1368 53.2375C27.0402 52.967 27.1368 52.7946 27.4264 52.7168C27.6678 52.6594 27.8312 52.7409 27.9185 52.9633C28.0819 53.4357 28.2248 53.9249 28.3455 54.4307C28.4662 54.9366 28.546 55.3868 28.585 55.7815C28.6147 56.0131 28.5033 56.1576 28.2527 56.2151C28.0893 56.254 27.9649 56.254 27.8832 56.2151Z" fill="white"/>
<path d="M35.624 50.7381C35.3826 50.4972 35.4309 50.2415 35.7688 49.9728C36.6174 49.2206 37.3229 48.3349 37.8837 47.3139C37.9412 47.1991 38.0471 47.0972 38.203 47.0101C38.3572 46.923 38.5224 46.8804 38.6951 46.8804H38.7378C39.0089 46.8804 39.2447 46.9675 39.4471 47.1398C40.2288 47.8328 40.8805 48.4979 41.4023 49.1335C41.4895 49.2391 41.5229 49.341 41.5044 49.4373C41.4858 49.5152 41.4264 49.6115 41.3298 49.7264C41.2036 49.8802 41.094 49.9636 40.9975 49.9728C40.8916 49.9932 40.7858 49.9302 40.6781 49.7857C39.954 48.8796 39.3208 48.1904 38.7805 47.7197C38.4426 48.3164 38.0415 48.8907 37.5792 49.4392H39.9261C40.1861 49.4392 40.3179 49.5689 40.3179 49.8302C40.3179 50.0914 40.1879 50.2341 39.9261 50.2341H37.8985C37.7444 50.2341 37.6182 50.1859 37.5216 50.0896C37.4251 49.9932 37.3768 49.8672 37.3768 49.7134V49.6708C37.0964 49.9988 36.7548 50.3453 36.3481 50.7121C36.0771 50.9345 35.8357 50.9437 35.624 50.7418V50.7381ZM36.9275 60.0729C36.6174 60.0729 36.4633 59.9228 36.4633 59.6245V51.8924C36.4633 51.6423 36.5412 51.4385 36.6954 51.2847C36.8495 51.1309 37.0519 51.0531 37.3044 51.0531H40.1434C40.394 51.0531 40.5964 51.1309 40.7524 51.2847C40.9065 51.4385 40.9845 51.6423 40.9845 51.8924V54.2474C40.9845 54.4976 40.9065 54.7014 40.7524 54.8552C40.5983 55.009 40.3959 55.0868 40.1434 55.0868H37.3768V55.9836H40.6057C40.8861 55.9836 41.0253 56.1244 41.0253 56.4023C41.0253 56.6803 40.8861 56.8211 40.6057 56.8211H37.3768V57.7883H40.7505C41.0309 57.7883 41.1702 57.9291 41.1702 58.207C41.1702 58.485 41.0309 58.6258 40.7505 58.6258H37.3768V59.6226C37.3768 59.921 37.2264 60.071 36.9275 60.071V60.0729ZM37.3749 52.7021H40.0691V52.1092C40.0691 51.9072 39.967 51.8053 39.7646 51.8053H37.6794C37.4771 51.8053 37.3749 51.9054 37.3749 52.1092V52.7021ZM37.3749 54.3364H39.7646C39.967 54.3364 40.0691 54.2345 40.0691 54.0325V53.4118H37.3749V54.3364ZM41.0105 59.669C40.8954 59.5152 40.8842 59.341 40.9808 59.1483C41.0588 58.9945 41.1924 58.85 41.3855 58.7147C42.4866 57.8568 43.2924 56.6858 43.8049 55.2035C44.1335 54.2104 44.2969 53.258 44.2969 52.3427V50.449H43.168C42.8691 51.3829 42.5256 52.1889 42.1394 52.8633C42.0336 53.0264 41.9277 53.119 41.82 53.1376C41.7142 53.1579 41.5824 53.119 41.4282 53.0227C41.2537 52.9171 41.1553 52.8133 41.1312 52.7114C41.107 52.6095 41.1479 52.4779 41.2537 52.3149C41.9686 51.1198 42.494 49.4966 42.832 47.4436C42.8988 47.0582 43.103 46.8952 43.441 46.9526C43.7789 47.0101 43.9182 47.2083 43.8606 47.5456C43.7548 48.1329 43.6137 48.774 43.441 49.467H47.641C47.9213 49.467 48.1256 49.5522 48.2574 49.7208C48.3874 49.8895 48.4245 50.1229 48.3651 50.4212C48.1534 51.4718 47.9065 52.363 47.6261 53.0949C47.5389 53.3062 47.3606 53.3599 47.0914 53.2543C46.8203 53.1487 46.72 52.9838 46.7869 52.7633C46.9892 52.1277 47.1786 51.3569 47.3513 50.4509H45.3386V52.3445C45.3386 53.2209 45.502 54.1603 45.8306 55.1627C46.3134 56.6562 47.0672 57.8272 48.0903 58.6758C48.2741 58.8111 48.3948 58.9593 48.4524 59.1242C48.5192 59.3076 48.5007 59.4763 48.3948 59.63C48.289 59.7746 48.1479 59.8468 47.9752 59.8468C47.8211 59.8376 47.6614 59.7746 47.498 59.6597C46.668 58.976 46.0015 58.0644 45.5001 56.9285C45.1325 56.1096 44.906 55.3202 44.8187 54.5587C44.7221 55.3202 44.4752 56.1096 44.0797 56.9285C43.5301 58.0551 42.806 58.9704 41.9073 59.6745C41.5118 59.945 41.2129 59.945 41.0086 59.6745L41.0105 59.669Z" fill="white"/>
<path d="M53.5824 51.807C53.3411 51.4791 53.4376 51.2197 53.8721 51.027C54.8766 50.5267 55.8291 49.9338 56.7315 49.2501C57.6339 48.5664 58.3655 47.8826 58.9262 47.1971C59.1007 46.9655 59.3663 46.8506 59.7227 46.8506H59.7655C60.083 46.8506 60.3448 46.9618 60.5472 47.1823C61.2509 47.9253 62.0771 48.6275 63.0241 49.2927C63.9599 49.9375 64.9068 50.473 65.8631 50.8973C66.2883 51.0715 66.37 51.3401 66.11 51.707C65.9169 51.9664 65.6755 52.0294 65.3859 51.896C64.2848 51.3661 63.1838 50.6972 62.0827 49.8875V50.2932C62.0827 50.5045 61.9769 50.6101 61.7652 50.6101H58.2596C58.0572 50.6101 57.8957 50.5508 57.775 50.4304C57.6543 50.3099 57.5949 50.1487 57.5949 49.9468V49.9041C56.5031 50.7435 55.4132 51.4309 54.3214 51.9701C54.0113 52.1146 53.7663 52.0627 53.5824 51.8108V51.807ZM65.1389 59.9727C62.3092 59.3853 60.3392 58.0939 59.2307 56.1002H56.8113V58.6868L60.0403 58.3699C60.3782 58.3403 60.5472 58.4904 60.5472 58.8183C60.5472 59.1167 60.393 59.2816 60.083 59.3094C59.1936 59.4057 57.9105 59.5447 56.2302 59.7281C55.5246 59.8059 55.0177 59.8578 54.7095 59.8875C54.5554 59.8967 54.444 59.8671 54.3771 59.8004C54.3103 59.7318 54.2657 59.6169 54.2472 59.4539C54.1896 59.1167 54.3289 58.9332 54.6668 58.9054L55.7827 58.7906V52.2573C55.7827 52.0072 55.8607 51.8052 56.0148 51.6496C56.1689 51.4939 56.3713 51.4179 56.6238 51.4179H63.0686C63.3193 51.4179 63.5217 51.4958 63.6777 51.6496C63.8336 51.8033 63.9098 52.0053 63.9098 52.2573V56.102C64.036 56.0242 64.2143 55.9149 64.4464 55.7704C64.5039 55.7314 64.5466 55.7037 64.5763 55.6833C64.7601 55.5387 64.9625 55.5387 65.1853 55.6833C65.514 55.9149 65.514 56.1372 65.1853 56.3485C64.2198 56.9562 63.258 57.4713 62.3036 57.8956C63.1726 58.3866 64.2198 58.7572 65.4472 59.0092C66.0265 59.1055 66.1806 59.352 65.9113 59.7466C65.7665 59.969 65.5103 60.045 65.1445 59.9782L65.1389 59.9727ZM56.8113 53.3246H62.8644V52.5148C62.8644 52.3129 62.7623 52.211 62.5599 52.211H57.114C56.9116 52.211 56.8095 52.3129 56.8095 52.5148V53.3246H56.8113ZM56.8113 55.2756H62.8644V54.0898H56.8113V55.2756ZM57.6803 49.8263H61.9954C61.0782 49.1241 60.3392 48.4533 59.7803 47.8178C59.2103 48.5108 58.5103 49.1815 57.6803 49.8263ZM61.5479 57.3861C62.4355 56.9618 63.2172 56.5337 63.893 56.1002H60.3299C60.6289 56.5634 61.0336 56.9914 61.5461 57.3861H61.5479Z" fill="white"/>
<path d="M73.4091 52.8465C73.0712 52.6446 72.7871 52.4908 72.555 52.3833C72.3229 52.2592 71.9813 52.0998 71.5264 51.9071C71.1792 51.783 71.1105 51.5606 71.324 51.242C71.4688 51.0103 71.6712 50.9381 71.933 51.0252C72.7927 51.3346 73.4964 51.657 74.0479 51.9942C74.1834 52.0813 74.2558 52.1777 74.2651 52.2833C74.2651 52.3796 74.2224 52.5056 74.1351 52.6594C73.9327 52.9781 73.6914 53.0392 73.411 52.8465H73.4091ZM71.9312 59.5243C71.6415 59.302 71.5839 59.0611 71.7566 58.8017C72.0853 58.2718 72.4232 57.6937 72.7704 57.0674C73.1566 56.3744 73.5001 55.7241 73.7991 55.1163C73.9736 54.7402 74.2187 54.6883 74.5381 54.957C74.7609 55.1404 74.8091 55.3665 74.6829 55.637C74.0256 56.9766 73.3609 58.2329 72.685 59.4095C72.5012 59.7281 72.2505 59.7652 71.933 59.5243H71.9312ZM74.1333 49.0166C73.8436 48.8239 73.567 48.6516 73.3015 48.496C73.0359 48.3422 72.6906 48.168 72.2654 47.9753C71.9182 47.8308 71.8606 47.6047 72.0908 47.2953C72.2542 47.0637 72.4622 47.0007 72.7129 47.1082C73.5818 47.4639 74.2818 47.8308 74.8129 48.2069C74.9484 48.3033 75.0152 48.4052 75.0152 48.5108C75.0152 48.5979 74.967 48.7128 74.8704 48.8573C74.6587 49.176 74.4118 49.2279 74.1314 49.0166H74.1333ZM82.9956 59.5669C82.8898 59.3446 82.7635 59.1093 82.6187 58.8591C81.1704 58.974 79.0853 59.1241 76.3614 59.3075C75.9269 59.3372 75.6075 59.3557 75.4052 59.365C75.2511 59.3742 75.1341 59.3409 75.0579 59.2649C74.9892 59.1871 74.9465 59.063 74.928 58.8888C74.8704 58.5127 75.0301 58.3163 75.4052 58.2959L76.029 58.2662C76.6659 56.9748 77.2396 55.5258 77.7521 53.9157H75.3328C74.9948 53.9157 74.8259 53.7415 74.8259 53.395C74.8259 53.0485 74.9948 52.8892 75.3328 52.8892H78.8086V50.2451H76.042C75.7041 50.2451 75.5351 50.0765 75.5351 49.7393C75.5351 49.402 75.7041 49.2334 76.042 49.2334H78.8086V47.412C78.8086 47.0563 78.9924 46.8784 79.3582 46.8784C79.724 46.8784 79.893 47.0563 79.893 47.412V49.2334H82.7895C83.1274 49.2334 83.2964 49.402 83.2964 49.7393C83.2964 50.0765 83.1274 50.2451 82.7895 50.2451H79.893V52.8892H83.4709C83.8089 52.8892 83.9778 53.0578 83.9778 53.395C83.9778 53.7322 83.8089 53.9157 83.4709 53.9157H79.0091C78.2757 55.7945 77.663 57.2212 77.1691 58.194C78.6842 58.1161 80.3126 58.0198 82.0505 57.9049C81.577 57.1916 81.2001 56.6524 80.9216 56.2855C80.6895 55.9872 80.7434 55.75 81.0813 55.5777C81.3412 55.4332 81.564 55.4776 81.7479 55.7074C82.7617 56.9414 83.5248 58.0865 84.0354 59.1463C84.1022 59.3001 84.1134 59.4261 84.0651 59.5225C84.0261 59.6003 83.9258 59.6855 83.7606 59.7819C83.393 59.9838 83.1386 59.9116 82.9938 59.5651L82.9956 59.5669Z" fill="white"/>
<path d="M60.9224 38.2342C62.1126 40.4428 60.5343 42.0178 58.9542 42.0178H52.1121C48.4283 42.0178 48.4282 42.544 46.3227 39.3923L42.9192 33.615H34.2184V39.3923C34.2184 40.8431 33.0394 42.0178 31.5856 42.0178H23.6906C22.2368 42.0178 21.0596 40.8431 21.0596 39.3923V2.62553C21.0596 1.17658 22.2368 0 23.6906 0H48.9537C56.8041 0 63.1654 7.52455 63.1654 16.8075C63.1654 22.746 60.5622 27.9655 56.6296 30.9542L60.9224 38.2342Z" fill="white"/>
<path d="M30.1725 22.203V20.4002H25.2595C24.6393 20.4002 24.1751 20.2612 23.8651 19.9833C23.555 19.7053 23.4009 19.3273 23.4009 18.8493C23.4009 18.727 23.4232 18.6029 23.4696 18.4769C23.516 18.3509 23.5828 18.2193 23.6757 18.0803C23.7667 17.9414 23.8614 17.808 23.9598 17.6783C24.0582 17.5486 24.1789 17.3911 24.3218 17.2039L29.5096 10.3316C29.8494 9.87949 30.1279 9.55153 30.347 9.34772C30.5661 9.1439 30.8279 9.04199 31.1343 9.04199C32.1258 9.04199 32.6216 9.60342 32.6216 10.7281V18.2304H33.043C33.5462 18.2304 33.9491 18.299 34.2518 18.4342C34.5545 18.5695 34.7067 18.8678 34.7067 19.3255C34.7067 19.6998 34.5823 19.974 34.3354 20.1445C34.0865 20.3149 33.7152 20.402 33.2194 20.402H32.6216V22.2049C32.6216 22.7033 32.5102 23.072 32.2892 23.3147C32.0664 23.5575 31.7712 23.6779 31.398 23.6779C31.0247 23.6779 30.7369 23.5538 30.5123 23.3055C30.2876 23.0572 30.1743 22.6903 30.1743 22.2049L30.1725 22.203ZM25.9632 18.2286H30.1725V12.5977L25.9632 18.2286Z" fill="#9491C0"/>
<path d="M51.2262 21.1468H56.336C56.8447 21.1468 57.2328 21.2506 57.5002 21.4562C57.7675 21.6638 57.9012 21.9435 57.9012 22.2993C57.9012 22.6161 57.7954 22.8848 57.5837 23.1035C57.3721 23.3239 57.049 23.4333 56.6201 23.4333H49.4158C48.9256 23.4333 48.545 23.2999 48.2702 23.0312C47.9954 22.7625 47.8599 22.4475 47.8599 22.0862C47.8599 21.8528 47.9471 21.5452 48.1235 21.1598C48.2999 20.7762 48.493 20.4724 48.701 20.2537C49.5681 19.3625 50.3516 18.5972 51.0498 17.9617C51.7479 17.3262 52.2474 16.9074 52.5482 16.7073C53.0829 16.333 53.5286 15.9569 53.8851 15.5789C54.2416 15.2009 54.5108 14.8137 54.6965 14.4153C54.8821 14.0169 54.975 13.6278 54.975 13.248C54.975 12.8348 54.8747 12.4642 54.676 12.1381C54.4774 11.812 54.2063 11.5581 53.8628 11.3766C53.5193 11.195 53.1461 11.106 52.7413 11.106C51.8853 11.106 51.215 11.4785 50.7248 12.2215C50.6599 12.3178 50.5503 12.5828 50.3962 13.0164C50.2439 13.4499 50.0694 13.7816 49.8782 14.0151C49.6851 14.2467 49.4028 14.3634 49.0315 14.3634C48.7047 14.3634 48.4355 14.2559 48.2201 14.0429C48.0047 13.8298 47.897 13.5389 47.897 13.1702C47.897 12.7236 47.9973 12.2585 48.1996 11.7749C48.402 11.2895 48.7028 10.8503 49.1057 10.4575C49.5068 10.0629 50.0156 9.74603 50.632 9.5033C51.2485 9.26057 51.9707 9.14014 52.8007 9.14014C53.7996 9.14014 54.65 9.29578 55.3556 9.60521C55.8124 9.81273 56.2134 10.0962 56.5588 10.4575C56.9041 10.8188 57.1734 11.2376 57.3665 11.7119C57.5596 12.1863 57.6543 12.6791 57.6543 13.1905C57.6543 13.991 57.4538 14.721 57.0527 15.3769C56.6516 16.0329 56.2413 16.5461 55.8235 16.9185C55.4057 17.291 54.7057 17.8728 53.7235 18.6677C52.7413 19.4625 52.0673 20.0795 51.7034 20.5187C51.5474 20.6929 51.3859 20.9041 51.2243 21.1487L51.2262 21.1468Z" fill="#9491C0"/>
<path d="M36.6992 15.1582H45.3165C45.9552 15.1582 46.4732 15.6752 46.4732 16.3125V16.735C46.4732 17.3724 45.9552 17.8894 45.3165 17.8894H36.6992C36.0605 17.8894 35.5425 17.3724 35.5425 16.735V16.3125C35.5425 15.6752 36.0605 15.1582 36.6992 15.1582Z" fill="#9491C0"/>
<path d="M40.797 11.0728H41.2166C41.8553 11.0728 42.3734 11.5897 42.3734 12.2271V20.8263C42.3734 21.4637 41.8553 21.9807 41.2166 21.9807H40.7989C40.1601 21.9807 39.6421 21.4637 39.6421 20.8263V12.2271C39.6421 11.5897 40.1601 11.0728 40.7989 11.0728H40.797Z" fill="#9491C0"/>
</g>
<defs>
<clipPath id="clip0_10079_18981">
<rect width="84.0983" height="60" fill="white"/>
</clipPath>
</defs>
</svg>
