<svg width="226" height="45" viewBox="0 0 226 45" fill="none" xmlns="http://www.w3.org/2000/svg">
<path d="M41.7274 40.0597C42.9711 42.3677 41.3219 44.0135 39.6707 44.0135H32.5207C28.6712 44.0135 28.6712 44.5634 26.4709 41.2698L22.9143 35.2327H13.8221V41.2698C13.8221 42.7859 12.5901 44.0135 11.0708 44.0135H2.82068C1.30143 44.0135 0.0712891 42.7859 0.0712891 41.2698V2.84911C0.0712891 1.33498 1.30143 0.105469 2.82068 0.105469H29.2203C37.4238 0.105469 44.0713 7.96852 44.0713 17.6691C44.0713 23.8747 41.351 29.3291 37.2415 32.4522L41.7274 40.0597Z" fill="#9491C0"/>
<path d="M9.59431 23.3073V21.4233H4.4603C3.81224 21.4233 3.32717 21.2781 3.00314 20.9877C2.67911 20.6972 2.51807 20.3022 2.51807 19.8027C2.51807 19.6749 2.54135 19.5452 2.58986 19.4135C2.63837 19.2818 2.70822 19.1444 2.80523 18.9992C2.9003 18.8539 2.99926 18.7145 3.10209 18.579C3.20493 18.4435 3.33105 18.2789 3.48045 18.0833L8.90163 10.9018C9.2567 10.4294 9.54774 10.0867 9.7767 9.87368C10.0057 9.66069 10.2792 9.5542 10.5994 9.5542C11.6355 9.5542 12.1536 10.1409 12.1536 11.3162V19.156H12.594C13.1198 19.156 13.5409 19.2276 13.8571 19.369C14.1734 19.5103 14.3325 19.8221 14.3325 20.3003C14.3325 20.6914 14.2025 20.978 13.9444 21.1561C13.6844 21.3343 13.2964 21.4253 12.7783 21.4253H12.1536V23.3092C12.1536 23.8301 12.0371 24.2154 11.8062 24.469C11.5734 24.7227 11.2649 24.8485 10.8749 24.8485C10.4849 24.8485 10.1842 24.7188 9.94939 24.4593C9.71461 24.1999 9.59625 23.8165 9.59625 23.3092L9.59431 23.3073ZM5.19567 19.1541H9.59431V13.2698L5.19567 19.1541Z" fill="white"/>
<path d="M31.5954 22.2035H36.9351C37.4667 22.2035 37.8722 22.312 38.1516 22.5269C38.431 22.7438 38.5707 23.0361 38.5707 23.4079C38.5707 23.739 38.4601 24.0197 38.2389 24.2482C38.0178 24.4786 37.6801 24.5929 37.2319 24.5929H29.7036C29.1914 24.5929 28.7936 24.4535 28.5064 24.1727C28.2193 23.8919 28.0776 23.5628 28.0776 23.1852C28.0776 22.9413 28.1688 22.6198 28.3532 22.2171C28.5375 21.8163 28.7393 21.4988 28.9566 21.2703C29.8627 20.339 30.6815 19.5393 31.4111 18.8752C32.1406 18.211 32.6625 17.7734 32.9769 17.5643C33.5357 17.1732 34.0013 16.7802 34.3739 16.3852C34.7464 15.9902 35.0278 15.5855 35.2218 15.1692C35.4158 14.7529 35.5128 14.3463 35.5128 13.9494C35.5128 13.5176 35.4081 13.1303 35.2004 12.7896C34.9928 12.4488 34.7096 12.1835 34.3506 11.9938C33.9916 11.804 33.6016 11.7111 33.1787 11.7111C32.2842 11.7111 31.5837 12.1003 31.0715 12.8767C31.0036 12.9774 30.8891 13.2543 30.7281 13.7073C30.569 14.1604 30.3866 14.507 30.1867 14.751C29.9849 14.993 29.69 15.115 29.302 15.115C28.9605 15.115 28.6791 15.0027 28.4541 14.78C28.229 14.5574 28.1164 14.2534 28.1164 13.8681C28.1164 13.4014 28.2212 12.9154 28.4327 12.4101C28.6442 11.9028 28.9585 11.4439 29.3796 11.0334C29.7987 10.621 30.3303 10.2899 30.9745 10.0362C31.6187 9.78259 32.3734 9.65674 33.2408 9.65674C34.2846 9.65674 35.1733 9.81938 35.9106 10.1427C36.3879 10.3596 36.807 10.6558 37.1679 11.0334C37.5288 11.411 37.8101 11.8486 38.0119 12.3442C38.2137 12.8399 38.3127 13.3549 38.3127 13.8894C38.3127 14.7258 38.1031 15.4887 37.684 16.1741C37.2649 16.8595 36.8361 17.3959 36.3995 17.7851C35.963 18.1742 35.2315 18.7822 34.2051 19.6129C33.1787 20.4435 32.4743 21.0883 32.094 21.5472C31.9311 21.7292 31.7622 21.9499 31.5934 22.2055L31.5954 22.2035Z" fill="white"/>
<path d="M16.4149 15.9458H25.4198C26.0872 15.9458 26.6286 16.486 26.6286 17.1521V17.5935C26.6286 18.2596 26.0872 18.7998 25.4198 18.7998H16.4149C15.7474 18.7998 15.2061 18.2596 15.2061 17.5935V17.1521C15.2061 16.486 15.7474 15.9458 16.4149 15.9458Z" fill="white"/>
<path d="M20.6971 11.6763H21.1356C21.8031 11.6763 22.3444 12.2165 22.3444 12.8825V21.8686C22.3444 22.5347 21.8031 23.0749 21.1356 23.0749H20.699C20.0316 23.0749 19.4902 22.5347 19.4902 21.8686V12.8825C19.4902 12.2165 20.0316 11.6763 20.699 11.6763H20.6971Z" fill="white"/>
<path d="M62.9149 35.4942C62.2019 35.4942 61.8417 35.1385 61.8417 34.427V19.048C60.9133 20.2635 59.9589 21.3604 58.9748 22.3425C58.6258 22.6686 58.3287 22.8205 58.0762 22.7909C57.8236 22.7612 57.5748 22.5463 57.3223 22.1386C57.1292 21.7903 57.0475 21.4975 57.0772 21.2567C57.1069 21.0158 57.2666 20.7712 57.5563 20.5192C58.9637 19.1889 60.2783 17.6658 61.4963 15.9537C62.7701 14.1601 63.8247 12.3221 64.6528 10.4321C64.9239 9.79475 65.377 9.57611 66.0157 9.76881C66.7101 9.99857 66.9144 10.4544 66.6247 11.1288C65.9117 12.7112 65.0316 14.3195 63.9881 15.9574V34.427C63.9881 35.1385 63.6316 35.4942 62.9149 35.4942ZM80.6136 35.5239C78.3743 35.3497 76.577 33.8748 75.2252 31.1029C74.0072 28.6163 73.1122 24.9736 72.5329 20.1783L66.6544 20.9306C65.9971 21.0084 65.6258 20.7082 65.5404 20.0338C65.4549 19.3593 65.7372 18.985 66.3945 18.9072L72.3027 18.155C72.091 15.6091 71.9276 13.1262 71.8088 10.699C71.7717 9.96892 72.117 9.60205 72.8523 9.60205C73.5281 9.60205 73.8846 9.9578 73.9255 10.6693C74.0592 13.6562 74.2337 16.0575 74.4454 17.8659L82.0358 16.8839C82.6931 16.8061 83.0682 17.0988 83.1647 17.7659C83.2613 18.4292 82.9716 18.8109 82.2958 18.9072L78.9648 19.3408L74.6496 19.8892C75.151 23.8989 75.8751 27.008 76.822 29.2241C77.8247 31.6143 79.0613 32.8779 80.5281 33.0114C81.1075 33.0299 81.5419 32.185 81.8316 30.4692C81.9096 29.8726 82.0544 29.3982 82.2661 29.0536C82.5372 28.6311 82.8639 28.5348 83.2502 28.7646C83.4618 28.9017 83.5992 29.1981 83.6549 29.6613C83.7143 30.0467 83.7143 30.4136 83.6549 30.7583C83.0942 34.0341 82.0804 35.6239 80.6136 35.5276V35.5239ZM81.1929 15.2608C80.9812 15.2608 80.777 15.1348 80.5838 14.8865C79.6963 13.8266 78.6157 12.7186 77.3382 11.5624C76.7589 11.0806 76.7775 10.6285 77.3976 10.2024C77.821 9.91333 78.2072 9.91333 78.5563 10.2024C79.2321 10.7434 79.9377 11.3771 80.6693 12.1109C81.3823 12.8261 81.8873 13.3449 82.1769 13.671C82.3886 13.9415 82.4703 14.1713 82.422 14.364C82.3738 14.5567 82.2067 14.7531 81.9133 14.9569C81.6236 15.157 81.3823 15.2608 81.1892 15.2608H81.1929Z" fill="#9491C0"/>
<path d="M93.5887 15.6943C93.0094 15.6943 92.7197 15.3979 92.7197 14.7975C92.7197 14.1972 93.0094 13.9304 93.5887 13.9304H100.366C100.945 13.9304 101.235 14.2194 101.235 14.7975C101.235 15.3756 100.945 15.6943 100.366 15.6943H93.5887ZM95.4715 33.8452C94.9701 33.8452 94.5654 33.6895 94.2534 33.3819C93.9452 33.0744 93.7892 32.6704 93.7892 32.1664V27.1933C93.7892 26.693 93.9452 26.2891 94.2534 25.9778C94.5616 25.6702 94.9664 25.5146 95.4715 25.5146H99.0327C99.534 25.5146 99.9314 25.6591 100.221 25.9482C100.511 26.2372 100.656 26.6337 100.656 27.134V32.1627C100.656 32.663 100.5 33.0706 100.191 33.3782C99.8831 33.6858 99.4783 33.8414 98.9733 33.8414H95.4677L95.4715 33.8452ZM94.6916 19.5372C94.1309 19.5372 93.8524 19.2482 93.8524 18.6701C93.8524 18.092 94.1309 17.8326 94.6916 17.8326H99.7606C100.321 17.8326 100.6 18.1105 100.6 18.6701C100.6 19.2296 100.321 19.5372 99.7606 19.5372H94.6916ZM94.7213 23.3838C94.142 23.3838 93.8524 23.0947 93.8524 22.5166C93.8524 21.9385 94.142 21.6495 94.7213 21.6495H99.7309C100.31 21.6495 100.6 21.9385 100.6 22.5166C100.6 23.0947 100.31 23.3838 99.7309 23.3838H94.7213ZM94.8364 11.8774C94.2571 11.8774 93.9675 11.5884 93.9675 11.0103C93.9675 10.4322 94.2571 10.1431 94.8364 10.1431H99.6752C100.254 10.1431 100.544 10.4322 100.544 11.0103C100.544 11.5884 100.254 11.8774 99.6752 11.8774H94.8364ZM96.0805 32.1109H98.2826C98.6874 32.1109 98.8916 31.907 98.8916 31.5031V27.89C98.8916 27.4861 98.6874 27.2823 98.2826 27.2823H96.0805C95.6757 27.2823 95.4715 27.4824 95.4715 27.89V31.5031C95.4715 31.907 95.6757 32.1109 96.0805 32.1109ZM106.334 35.5498C105.524 35.5498 105.03 35.3089 104.856 34.8272C104.7 34.4418 104.77 34.1639 105.06 33.9897C105.29 33.8155 105.65 33.7377 106.133 33.7599H107.466C107.815 33.7599 107.986 33.5783 107.986 33.2115V27.575C106.46 29.5391 104.733 31.2548 102.802 32.7186C102.282 33.104 101.807 33.0447 101.383 32.5444C100.882 31.9663 100.96 31.4661 101.614 31.0399C103.641 29.5761 105.368 27.9085 106.798 26.0408L102.423 26.9932C101.803 27.1488 101.428 26.9339 101.294 26.3595C101.12 25.7036 101.361 25.3367 102.018 25.2626C102.078 25.2441 102.148 25.2256 102.234 25.2033C102.319 25.1848 102.382 25.1737 102.423 25.1737V13.7266C102.423 13.2263 102.579 12.8224 102.887 12.5111C103.196 12.2035 103.6 12.0479 104.105 12.0479H104.685C104.915 11.3364 105.101 10.6656 105.234 10.0393C105.368 9.41307 105.765 9.16849 106.423 9.30189C107.158 9.45754 107.388 9.88 107.117 10.573C107.039 10.8027 106.913 11.1511 106.742 11.6143C106.664 11.807 106.608 11.9515 106.567 12.0479H109.059C109.542 12.0479 109.783 12.2887 109.783 12.7705V22.3388L110.537 22.5685C110.886 22.7056 110.983 22.9243 110.827 23.2319C110.537 23.81 110.192 24.4251 109.783 25.081V33.2041C109.783 34.2231 109.464 34.8902 108.829 35.1978C108.346 35.3905 107.514 35.5053 106.337 35.5461L106.334 35.5498ZM104.191 16.0686H107.986V14.3047C107.986 13.9007 107.782 13.6969 107.377 13.6969H104.8C104.395 13.6969 104.191 13.897 104.191 14.3047V16.0686ZM104.191 20.1153H107.986V17.7177H104.191V20.1153ZM104.191 24.855C104.982 24.6993 106.248 24.451 107.986 24.1027V21.7903H104.191V24.855ZM113.749 35.6091C112.899 35.6091 112.387 35.3386 112.216 34.8012C112.082 34.3973 112.156 34.0897 112.446 33.8748C112.695 33.7006 113.074 33.6228 113.575 33.645H114.938C115.287 33.6265 115.458 33.4338 115.458 33.0669V18.2402H111.343C110.686 18.2402 110.359 17.903 110.359 17.2285C110.359 16.5541 110.686 16.2465 111.343 16.2465H115.458V10.3803C115.458 9.72435 115.784 9.39824 116.442 9.39824C117.099 9.39824 117.426 9.72435 117.426 10.3803V16.2465H118.035C118.692 16.2465 119.019 16.5726 119.019 17.2285C119.019 17.8844 118.692 18.2402 118.035 18.2402H117.426V33.041C117.426 33.6562 117.344 34.1342 117.181 34.4714C117.017 34.8087 116.743 35.0532 116.356 35.2089C115.933 35.4201 115.064 35.5572 113.749 35.6128V35.6091ZM112.84 27.8344C112.676 27.7566 112.583 27.5639 112.565 27.2563C112.39 25.5776 111.985 23.7877 111.347 21.8792C111.154 21.3382 111.347 20.9936 111.926 20.8379C112.409 20.7231 112.736 20.8861 112.91 21.3308C113.237 22.2758 113.523 23.2541 113.764 24.2658C114.006 25.2774 114.165 26.1779 114.243 26.9673C114.303 27.4305 114.08 27.7195 113.579 27.8344C113.252 27.9122 113.003 27.9122 112.84 27.8344Z" fill="#9491C0"/>
<path d="M128.321 16.8799C127.838 16.3982 127.935 15.8868 128.611 15.3495C130.308 13.8449 131.719 12.0736 132.841 10.0317C132.956 9.80194 133.167 9.59812 133.479 9.42395C133.788 9.24978 134.118 9.16455 134.463 9.16455H134.549C135.091 9.16455 135.563 9.33872 135.967 9.68336C137.531 11.0693 138.834 12.3997 139.878 13.6708C140.052 13.882 140.119 14.0858 140.082 14.2785C140.045 14.4341 139.926 14.6268 139.733 14.8566C139.48 15.1642 139.261 15.3309 139.068 15.3495C138.857 15.3902 138.645 15.2642 138.429 14.9752C136.981 13.1631 135.715 11.7845 134.634 10.8433C133.958 12.0365 133.156 13.1853 132.232 14.2822H136.925C137.445 14.2822 137.709 14.5416 137.709 15.0641C137.709 15.5866 137.449 15.872 136.925 15.872H132.87C132.562 15.872 132.31 15.7756 132.116 15.5829C131.923 15.3902 131.827 15.1382 131.827 14.8307V14.7454C131.266 15.4013 130.583 16.0943 129.77 16.8281C129.227 17.2728 128.745 17.2913 128.321 16.8874V16.8799ZM130.928 35.5496C130.308 35.5496 130 35.2494 130 34.6528V19.1886C130 18.6884 130.156 18.2807 130.464 17.9732C130.772 17.6656 131.177 17.5099 131.682 17.5099H137.36C137.861 17.5099 138.266 17.6656 138.578 17.9732C138.886 18.2807 139.042 18.6884 139.042 19.1886V23.8987C139.042 24.3989 138.886 24.8066 138.578 25.1142C138.27 25.4217 137.865 25.5774 137.36 25.5774H131.827V27.371H138.285C138.845 27.371 139.124 27.6526 139.124 28.2085C139.124 28.7643 138.845 29.046 138.285 29.046H131.827V30.9804H138.574C139.135 30.9804 139.414 31.262 139.414 31.8179C139.414 32.3737 139.135 32.6554 138.574 32.6554H131.827V34.6491C131.827 35.2457 131.526 35.5459 130.928 35.5459V35.5496ZM131.823 20.8081H137.211V19.6222C137.211 19.2183 137.007 19.0145 136.602 19.0145H132.432C132.027 19.0145 131.823 19.2146 131.823 19.6222V20.8081ZM131.823 24.0765H136.602C137.007 24.0765 137.211 23.8727 137.211 23.4688V22.2274H131.823V24.0765ZM139.094 34.7417C138.864 34.4341 138.842 34.0858 139.035 33.7004C139.191 33.3928 139.458 33.1038 139.844 32.8333C142.046 31.1175 143.658 28.7754 144.683 25.8108C145.34 23.8245 145.667 21.9198 145.667 20.0891V16.3018H143.409C142.811 18.1696 142.124 19.7816 141.352 21.1305C141.14 21.4566 140.929 21.6419 140.713 21.6789C140.502 21.7197 140.238 21.6418 139.93 21.4491C139.581 21.2379 139.384 21.0304 139.336 20.8266C139.287 20.6228 139.369 20.3597 139.581 20.0336C141.01 17.6433 142.061 14.3971 142.737 10.2911C142.871 9.5203 143.279 9.1942 143.955 9.30908C144.631 9.42395 144.91 9.82046 144.794 10.4949C144.583 11.6696 144.301 12.9518 143.955 14.3378H152.355C152.916 14.3378 153.324 14.5083 153.588 14.8455C153.848 15.1827 153.922 15.6496 153.803 16.2463C153.38 18.3474 152.886 20.1299 152.325 21.5937C152.151 22.0161 151.794 22.1236 151.256 21.9124C150.714 21.7011 150.513 21.3713 150.647 20.9303C151.052 19.6593 151.431 18.1177 151.776 16.3056H147.75V20.0928C147.75 21.8457 148.077 23.7245 148.735 25.7293C149.7 28.7162 151.208 31.0582 153.254 32.7554C153.622 33.026 153.863 33.3224 153.978 33.6522C154.112 34.0191 154.075 34.3563 153.863 34.6639C153.651 34.9529 153.369 35.0975 153.024 35.0975C152.715 35.0789 152.396 34.9529 152.069 34.7232C150.409 33.3558 149.076 31.5325 148.073 29.2609C147.338 27.623 146.885 26.0443 146.711 24.5212C146.518 26.0443 146.024 27.623 145.233 29.2609C144.133 31.514 142.685 33.3447 140.888 34.7528C140.097 35.2939 139.499 35.2939 139.09 34.7528L139.094 34.7417Z" fill="#9491C0"/>
<path d="M164.238 19.0184C163.755 18.3625 163.948 17.8437 164.817 17.4583C166.826 16.4577 168.731 15.2719 170.536 13.9044C172.341 12.537 173.804 11.1696 174.926 9.79844C175.275 9.33522 175.806 9.10547 176.519 9.10547H176.604C177.239 9.10547 177.763 9.32781 178.168 9.7688C179.575 11.2548 181.227 12.6593 183.121 13.9897C184.993 15.2793 186.887 16.3502 188.799 17.1989C189.65 17.5472 189.813 18.0845 189.293 18.8183C188.907 19.3371 188.424 19.4631 187.845 19.1963C185.643 18.1364 183.441 16.7986 181.239 15.1792V15.9908C181.239 16.4132 181.027 16.6245 180.604 16.6245H173.592C173.188 16.6245 172.865 16.5059 172.623 16.265C172.382 16.0241 172.263 15.7017 172.263 15.2978V15.2126C170.079 16.8913 167.9 18.2661 165.716 19.3445C165.096 19.6335 164.606 19.5298 164.238 19.0258V19.0184ZM187.351 35.3497C181.692 34.175 177.752 31.592 175.535 27.6046H170.696V32.7779L177.154 32.1442C177.83 32.0849 178.168 32.3851 178.168 33.041C178.168 33.6376 177.859 33.9674 177.239 34.023C175.46 34.2157 172.894 34.4936 169.534 34.8605C168.122 35.0162 167.109 35.1199 166.492 35.1792C166.184 35.1977 165.961 35.1385 165.827 35.005C165.694 34.8679 165.605 34.6382 165.568 34.3121C165.452 33.6376 165.731 33.2707 166.407 33.2152L168.639 32.9854V19.9189C168.639 19.4186 168.795 19.0147 169.103 18.7034C169.411 18.3921 169.816 18.2402 170.321 18.2402H183.211C183.712 18.2402 184.117 18.3958 184.429 18.7034C184.74 19.011 184.893 19.4149 184.893 19.9189V27.6083C185.145 27.4527 185.502 27.2341 185.966 26.945C186.081 26.8672 186.166 26.8116 186.226 26.7708C186.594 26.4818 186.998 26.4818 187.444 26.7708C188.101 27.2341 188.101 27.6788 187.444 28.1012C185.513 29.3167 183.589 30.3469 181.681 31.1955C183.418 32.1775 185.513 32.9187 187.968 33.4227C189.126 33.6154 189.434 34.1082 188.896 34.8976C188.606 35.3423 188.094 35.4942 187.362 35.3608L187.351 35.3497ZM170.696 22.0534H182.802V20.434C182.802 20.0301 182.598 19.8262 182.193 19.8262H171.301C170.896 19.8262 170.692 20.0301 170.692 20.434V22.0534H170.696ZM170.696 25.9556H182.802V23.5839H170.696V25.9556ZM172.434 15.0569H181.064C179.23 13.6524 177.752 12.3109 176.634 11.0399C175.494 12.4258 174.094 13.7673 172.434 15.0569ZM180.169 30.1764C181.944 29.3278 183.508 28.4718 184.859 27.6046H177.733C178.331 28.5311 179.14 29.3871 180.165 30.1764H180.169Z" fill="#9491C0"/>
<path d="M203.892 21.0974C203.216 20.6935 202.648 20.3859 202.183 20.171C201.719 19.9227 201.036 19.604 200.126 19.2186C199.432 18.9703 199.294 18.5256 199.721 17.8882C200.011 17.425 200.416 17.2805 200.939 17.4546C202.659 18.0735 204.066 18.7183 205.169 19.3927C205.44 19.5669 205.585 19.7596 205.603 19.9708C205.603 20.1635 205.518 20.4155 205.344 20.7231C204.939 21.3605 204.456 21.4828 203.895 21.0974H203.892ZM200.936 34.453C200.356 34.0083 200.241 33.5265 200.586 33.0077C201.244 31.9479 201.92 30.7917 202.614 29.5391C203.386 28.1532 204.073 26.8524 204.671 25.637C205.02 24.8847 205.511 24.7809 206.149 25.3183C206.595 25.6851 206.692 26.1372 206.439 26.6783C205.124 29.3575 203.795 31.87 202.443 34.2232C202.076 34.8606 201.574 34.9347 200.939 34.453H200.936ZM205.34 13.4376C204.76 13.0522 204.207 12.7075 203.676 12.3963C203.145 12.0887 202.454 11.7403 201.604 11.3549C200.91 11.0659 200.794 10.6138 201.255 9.99493C201.582 9.53171 201.998 9.40572 202.499 9.62065C204.237 10.3322 205.637 11.0659 206.699 11.8182C206.97 12.0109 207.104 12.2147 207.104 12.4259C207.104 12.6001 207.007 12.8298 206.814 13.1189C206.391 13.7563 205.897 13.86 205.336 13.4376H205.34ZM223.064 34.5382C222.853 34.0935 222.6 33.6229 222.311 33.1226C219.414 33.3523 215.244 33.6525 209.796 34.0194C208.927 34.0787 208.288 34.1157 207.884 34.1343C207.575 34.1528 207.341 34.0861 207.189 33.9342C207.052 33.7785 206.966 33.5302 206.929 33.1819C206.814 32.4296 207.133 32.0368 207.884 31.996L209.131 31.9368C210.405 29.3538 211.553 26.4559 212.577 23.2356H207.739C207.063 23.2356 206.725 22.8873 206.725 22.1943C206.725 21.5013 207.063 21.1826 207.739 21.1826H214.69V15.8945H209.157C208.481 15.8945 208.144 15.5573 208.144 14.8828C208.144 14.2084 208.481 13.8712 209.157 13.8712H214.69V10.2284C214.69 9.51689 215.058 9.16113 215.79 9.16113C216.521 9.16113 216.859 9.51689 216.859 10.2284V13.8712H222.652C223.328 13.8712 223.666 14.2084 223.666 14.8828C223.666 15.5573 223.328 15.8945 222.652 15.8945H216.859V21.1826H224.015C224.691 21.1826 225.029 21.5198 225.029 22.1943C225.029 22.8687 224.691 23.2356 224.015 23.2356H215.092C213.625 26.9933 212.399 29.8467 211.411 31.7922C214.442 31.6366 217.698 31.4439 221.174 31.2141C220.227 29.7874 219.473 28.709 218.916 27.9753C218.452 27.3787 218.56 26.9043 219.236 26.5597C219.756 26.2706 220.201 26.3596 220.569 26.8191C222.597 29.2871 224.123 31.5773 225.144 33.697C225.278 34.0046 225.3 34.2566 225.203 34.4493C225.125 34.6049 224.925 34.7754 224.594 34.9681C223.859 35.372 223.35 35.2275 223.061 34.5345L223.064 34.5382Z" fill="#9491C0"/>
</svg>
