<svg width="330" height="216" viewBox="0 0 330 216" fill="none" xmlns="http://www.w3.org/2000/svg">
<rect x="8.07129" y="151.105" width="152.5" height="56.789" rx="8" fill="#9491C0"/>
<path d="M46.4042 171.894L51.164 171.847L51.3068 186.306L46.547 186.353L46.5265 184.273L49.1663 184.247L49.0648 173.968L46.4249 173.994L46.4042 171.894ZM46.8453 176.05L50.8651 176.01L50.885 178.03L46.8652 178.07L46.8453 176.05ZM51.6136 172.823L63.293 172.707L63.3118 174.607L51.6324 174.722L51.6136 172.823ZM46.8858 180.15L50.9056 180.11L50.9255 182.13L46.9057 182.17L46.8858 180.15ZM45.4842 171.903L47.5841 171.882L47.7432 187.982L45.6433 188.002L45.4842 171.903ZM55.038 181.349L55.0471 182.269L59.7069 182.223L59.6978 181.303L55.038 181.349ZM55.0139 178.909L55.0228 179.809L59.6826 179.763L59.6737 178.863L55.0139 178.909ZM52.898 177.31L61.8576 177.222L61.9228 183.821L52.9632 183.91L52.898 177.31ZM61.8533 174.762L63.4823 175.665C63.1392 176.029 62.8026 176.379 62.4726 176.715C62.1424 177.039 61.8319 177.322 61.5409 177.565L60.2331 176.778C60.5105 176.508 60.8005 176.179 61.1034 175.789C61.4195 175.399 61.6695 175.057 61.8533 174.762ZM51.4646 175.964L52.8145 174.931C53.1906 175.207 53.5537 175.524 53.9039 175.88C54.254 176.223 54.5172 176.547 54.6936 176.852L53.2649 178.007C53.0885 177.702 52.8318 177.357 52.4947 176.974C52.1575 176.591 51.8142 176.254 51.4646 175.964ZM59.4565 185.226L61.2075 184.308C61.5576 184.652 61.9013 185.028 62.2387 185.438C62.5895 185.848 62.9069 186.258 63.1909 186.669C63.475 187.079 63.7054 187.451 63.882 187.782L62.0325 188.86C61.8826 188.529 61.6655 188.151 61.3813 187.727C61.097 187.29 60.786 186.853 60.4483 186.416C60.124 185.979 59.7934 185.582 59.4565 185.226ZM56.3173 183.297L58.5772 183.274L58.6163 187.234C58.6212 187.727 58.5718 188.128 58.4682 188.436C58.3647 188.757 58.1405 189.012 57.7957 189.202C57.4641 189.379 57.0785 189.489 56.6389 189.534C56.2127 189.578 55.7062 189.603 55.1196 189.609C55.0898 189.289 54.9995 188.923 54.8487 188.511C54.7113 188.099 54.5612 187.748 54.3983 187.456C54.7451 187.466 55.0785 187.469 55.3984 187.466C55.7318 187.463 55.9584 187.46 56.0784 187.459C56.2649 187.444 56.3574 187.356 56.3558 187.196L56.3173 183.297ZM55.9938 170.799L58.1369 171.098C57.7048 173.249 56.9895 175.083 55.9911 176.6C55.0059 178.103 53.6979 179.316 52.0669 180.238C51.9986 180.079 51.8834 179.887 51.7212 179.662C51.5721 179.423 51.4098 179.192 51.2343 178.967C51.0587 178.742 50.9036 178.563 50.769 178.431C52.2286 177.71 53.3855 176.712 54.2396 175.437C55.0935 174.148 55.6783 172.602 55.9938 170.799ZM53.0887 184.469L55.2341 185.007C54.8951 185.784 54.4559 186.542 53.9165 187.281C53.3903 188.006 52.8497 188.618 52.2946 189.117C52.1601 188.998 51.9853 188.853 51.7703 188.682C51.5552 188.511 51.3336 188.346 51.1054 188.188C50.8771 188.031 50.6759 187.906 50.5016 187.814C51.0575 187.395 51.5592 186.89 52.0068 186.299C52.4676 185.708 52.8283 185.098 53.0887 184.469ZM59.4227 173.705C59.7224 174.343 60.1019 174.965 60.5612 175.574C61.0205 176.17 61.5458 176.711 62.1374 177.199C62.7287 177.673 63.3592 178.053 64.0287 178.34C63.7908 178.556 63.5204 178.845 63.2173 179.208C62.9274 179.558 62.7038 179.873 62.5466 180.155C61.8227 179.762 61.1378 179.269 60.4919 178.675C59.8593 178.081 59.2927 177.414 58.792 176.672C58.3045 175.917 57.8833 175.121 57.5283 174.284L59.4227 173.705ZM67.1241 175.83L72.6838 175.775L72.7012 177.535L67.1415 177.589L67.1241 175.83ZM67.1563 179.089L72.716 179.034L72.7328 180.734L67.1731 180.789L67.1563 179.089ZM67.1895 182.449L72.7492 182.394L72.7666 184.154L67.2068 184.209L67.1895 182.449ZM75.8465 180.084L83.3662 180.009L83.3861 182.029L75.8665 182.103L75.8465 180.084ZM68.0914 172.52L71.2513 172.489L71.2693 174.308L68.1094 174.34L68.0914 172.52ZM74.2428 171.619L81.6825 171.546L81.702 173.525L74.2624 173.599L74.2428 171.619ZM74.3845 183.938L83.8041 183.845L83.8244 185.905L74.4049 185.998L74.3845 183.938ZM78.0486 178.262L80.3285 178.239L80.4374 189.259L78.1575 189.281L78.0486 178.262ZM69.3131 176.728L70.893 176.712L70.9558 183.072L69.3759 183.088L69.3131 176.728ZM81.0425 171.552L83.1624 171.531C83.1624 171.531 83.1567 171.631 83.1454 171.831C83.1472 172.018 83.1421 172.178 83.1301 172.311C83.1138 173.365 83.0825 174.238 83.036 174.932C82.9895 175.626 82.9216 176.173 82.8322 176.574C82.7428 176.975 82.6257 177.263 82.4807 177.438C82.3227 177.639 82.1441 177.788 81.9451 177.883C81.746 177.979 81.5201 178.054 81.2673 178.11C81.0409 178.139 80.7478 178.162 80.3879 178.179C80.0279 178.182 79.6412 178.179 79.2278 178.17C79.2114 177.864 79.1548 177.531 79.0579 177.172C78.9609 176.799 78.8311 176.487 78.6686 176.236C78.9889 176.259 79.2757 176.276 79.5292 176.287C79.7827 176.298 79.976 176.303 80.1094 176.301C80.2294 176.3 80.3293 176.292 80.4092 176.278C80.5022 176.251 80.5816 176.19 80.6474 176.096C80.7264 176.002 80.7912 175.808 80.8416 175.514C80.8919 175.207 80.9342 174.76 80.9684 174.173C81.0026 173.586 81.0283 172.812 81.0455 171.852L81.0425 171.552ZM75.4101 178.428L77.374 178.808C77.2096 179.717 76.9717 180.606 76.6603 181.476C76.3622 182.345 76.0227 183.075 75.6419 183.666C75.5076 183.574 75.3333 183.469 75.1188 183.351C74.9042 183.233 74.6831 183.122 74.4554 183.017C74.2277 182.913 74.0335 182.828 73.8729 182.763C74.2543 182.226 74.5745 181.57 74.8335 180.794C75.0925 180.018 75.2847 179.229 75.4101 178.428ZM67.5929 170.645L69.7375 171.103C69.4932 172.013 69.202 172.909 68.864 173.792C68.5261 174.676 68.1475 175.499 67.7284 176.264C67.3226 177.028 66.8825 177.699 66.4082 178.277C66.287 178.158 66.1189 178.013 65.9039 177.842C65.6887 177.657 65.4736 177.479 65.2586 177.308C65.0434 177.123 64.8487 176.985 64.6745 176.894C65.3471 176.14 65.9379 175.215 66.4471 174.116C66.9562 173.004 67.3381 171.847 67.5929 170.645ZM66.2441 175.838L68.164 175.819L68.2164 181.119C68.2227 181.759 68.2028 182.446 68.1567 183.18C68.124 183.913 68.0513 184.661 67.9389 185.422C67.8396 186.17 67.6801 186.898 67.4604 187.607C67.2406 188.302 66.9469 188.939 66.5792 189.516C66.4714 189.397 66.3101 189.265 66.0953 189.12C65.894 188.989 65.6794 188.858 65.4514 188.727C65.2369 188.609 65.0493 188.517 64.8886 188.452C65.3351 187.754 65.6609 186.985 65.8659 186.142C66.0708 185.287 66.1956 184.426 66.2404 183.559C66.285 182.678 66.3036 181.865 66.2963 181.118L66.2441 175.838ZM72.0238 175.781L74.0037 175.762L74.1155 187.081C74.1203 187.561 74.0708 187.955 73.9672 188.263C73.8636 188.57 73.6593 188.812 73.3544 188.989C73.0494 189.165 72.6838 189.275 72.2576 189.319C71.8314 189.377 71.3051 189.409 70.6784 189.415C70.6489 189.122 70.5588 188.776 70.4082 188.378C70.2709 187.979 70.1276 187.647 69.9783 187.382C70.3784 187.391 70.7519 187.401 71.0987 187.411C71.4453 187.407 71.6853 187.405 71.8186 187.404C71.9386 187.403 72.0184 187.382 72.058 187.341C72.1108 187.287 72.1366 187.194 72.1353 187.061L72.0238 175.781ZM76.6692 172.255L78.8091 172.234C78.7387 173.208 78.5876 174.11 78.3558 174.939C78.1372 175.754 77.7644 176.484 77.2374 177.13C76.7104 177.775 75.9558 178.322 74.9735 178.772C74.851 178.52 74.6615 178.229 74.4049 177.898C74.1616 177.567 73.9258 177.316 73.6974 177.145C74.4941 176.803 75.09 176.391 75.4852 175.907C75.8938 175.423 76.1751 174.873 76.329 174.259C76.4963 173.644 76.6097 172.976 76.6692 172.255ZM70.6713 172.494L71.1313 172.49L71.4305 172.407L72.8187 173.233C72.5984 173.875 72.3184 174.558 71.9789 175.282C71.6392 175.992 71.3186 176.601 71.0169 177.111C70.8155 176.966 70.5672 176.809 70.2722 176.638C69.9905 176.468 69.7425 176.33 69.5281 176.226C69.6849 175.904 69.8348 175.549 69.9776 175.161C70.1337 174.76 70.2697 174.358 70.3857 173.957C70.515 173.543 70.6114 173.182 70.6751 172.874L70.6713 172.494ZM89.3995 179.31L101.339 179.192L101.438 189.171L99.0376 189.195L98.9568 181.015L91.6972 181.087L91.778 189.267L89.4981 189.289L89.3995 179.31ZM85.3727 176.609L103.212 176.433L103.231 178.333L85.3914 178.509L85.3727 176.609ZM86.7463 173.936L102.086 173.784L102.103 175.584L86.7641 175.736L86.7463 173.936ZM90.9657 181.954L99.9253 181.866L99.9401 183.366L90.9805 183.454L90.9657 181.954ZM90.9892 184.334L99.9488 184.246L99.9636 185.746L91.0041 185.834L90.9892 184.334ZM90.753 186.737L99.9925 186.645L100.01 188.465L90.7709 188.557L90.753 186.737ZM100.592 170.419L101.989 172.105C100.964 172.288 99.8389 172.446 98.6135 172.578C97.4013 172.697 96.1356 172.803 94.8164 172.896C93.4972 172.976 92.171 173.035 90.838 173.075C89.505 173.115 88.2185 173.134 86.9784 173.133C86.9626 172.88 86.9063 172.581 86.8095 172.235C86.7128 171.889 86.6099 171.597 86.5009 171.358C87.7275 171.346 88.9873 171.32 90.2803 171.281C91.5865 171.228 92.8659 171.162 94.1185 171.083C95.3711 171.004 96.5503 170.912 97.656 170.808C98.7615 170.69 99.7403 170.56 100.592 170.419ZM92.0891 172.163L94.5739 172.638C94.1369 174.296 93.5661 175.908 92.8616 177.475C92.1704 179.042 91.2912 180.484 90.2242 181.802C89.157 183.106 87.8612 184.212 86.3368 185.12C86.2149 184.935 86.0662 184.723 85.8905 184.485C85.7148 184.246 85.5325 184.015 85.3436 183.79C85.1547 183.565 84.9795 183.38 84.8181 183.235C86.2237 182.448 87.4074 181.469 88.3693 180.3C89.3443 179.117 90.1315 177.822 90.731 176.416C91.3305 175.01 91.7832 173.593 92.0891 172.163ZM109.399 179.112L121.338 178.994L121.437 188.974L119.037 188.997L118.956 180.818L111.696 180.89L111.777 189.069L109.497 189.092L109.399 179.112ZM105.372 176.412L123.211 176.236L123.23 178.135L105.39 178.312L105.372 176.412ZM106.745 173.738L122.085 173.587L122.102 175.386L106.763 175.538L106.745 173.738ZM110.965 181.757L119.924 181.668L119.939 183.168L110.98 183.257L110.965 181.757ZM110.988 184.137L119.948 184.048L119.963 185.548L111.003 185.637L110.988 184.137ZM110.752 186.539L119.992 186.448L120.01 188.268L110.77 188.359L110.752 186.539ZM120.591 170.221L121.988 171.907C120.963 172.091 119.838 172.249 118.613 172.381C117.4 172.499 116.135 172.605 114.815 172.698C113.496 172.778 112.17 172.838 110.837 172.878C109.504 172.917 108.218 172.937 106.977 172.936C106.962 172.683 106.905 172.383 106.809 172.037C106.712 171.692 106.609 171.399 106.5 171.16C107.726 171.148 108.986 171.122 110.279 171.083C111.586 171.03 112.865 170.964 114.118 170.885C115.37 170.806 116.549 170.714 117.655 170.61C118.761 170.493 119.739 170.363 120.591 170.221ZM112.088 171.965L114.573 172.441C114.136 174.098 113.565 175.711 112.861 177.278C112.169 178.845 111.29 180.287 110.223 181.604C109.156 182.908 107.86 184.014 106.336 184.923C106.214 184.737 106.065 184.525 105.89 184.287C105.714 184.049 105.532 183.817 105.343 183.592C105.154 183.368 104.979 183.183 104.817 183.038C106.223 182.25 107.406 181.272 108.368 180.102C109.343 178.919 110.131 177.625 110.73 176.219C111.33 174.813 111.782 173.395 112.088 171.965Z" fill="white"/>
<rect x="169.571" y="152.105" width="150.5" height="54.789" rx="7" stroke="#9491C0" stroke-width="2"/>
<path d="M209.962 179.764L219.662 179.668L219.68 181.548L209.981 181.644L209.962 179.764ZM209.716 183.167L220.035 183.065L220.055 185.025L209.735 185.127L209.716 183.167ZM215.668 180.288L217.787 180.267L217.876 189.186L215.756 189.207L215.668 180.288ZM211.769 180.426L213.829 180.406L213.866 184.226C213.87 184.559 213.834 184.953 213.758 185.407C213.682 185.861 213.547 186.349 213.352 186.871C213.171 187.38 212.909 187.869 212.567 188.339C212.225 188.822 211.796 189.247 211.279 189.612C211.104 189.4 210.862 189.156 210.552 188.879C210.243 188.615 209.967 188.405 209.726 188.247C210.282 187.895 210.712 187.47 211.013 186.974C211.328 186.478 211.537 185.982 211.639 185.488C211.754 184.993 211.81 184.579 211.806 184.246L211.769 180.426ZM207.549 174.368L212.568 174.318L212.584 175.878L207.564 175.928L207.549 174.368ZM216.828 174.276L221.868 174.226L221.883 175.786L216.844 175.836L216.828 174.276ZM220.901 171.516L223.261 171.492L223.411 186.712C223.417 187.325 223.355 187.806 223.226 188.154C223.109 188.515 222.865 188.797 222.494 189.001C222.136 189.204 221.691 189.335 221.158 189.394C220.625 189.453 219.972 189.479 219.198 189.473C219.17 189.26 219.114 189.008 219.031 188.715C218.962 188.436 218.879 188.15 218.782 187.857C218.686 187.565 218.577 187.319 218.455 187.121C218.909 187.129 219.349 187.138 219.775 187.148C220.202 187.143 220.495 187.134 220.655 187.119C220.802 187.117 220.902 187.083 220.954 187.016C221.02 186.949 221.053 186.848 221.051 186.715L220.901 171.516ZM207.742 171.646L214.061 171.583L214.132 178.683L207.812 178.745L207.795 177.025L211.875 176.985L211.838 173.305L207.759 173.346L207.742 171.646ZM222.141 171.503L222.158 173.203L217.658 173.248L217.695 176.988L222.195 176.943L222.212 178.663L215.432 178.73L215.361 171.57L222.141 171.503ZM206.322 171.66L208.662 171.637L208.84 189.656L206.5 189.679L206.322 171.66ZM235.389 186.453L242.029 186.388L242.05 188.508L235.41 188.573L235.389 186.453ZM233.815 180.989L243.195 180.896L243.278 189.276L240.978 189.298L240.916 183.039L236.016 183.087L236.078 189.367L233.898 189.388L233.815 180.989ZM239.23 174.335L241.12 173.376C241.593 173.945 242.052 174.567 242.499 175.243C242.946 175.905 243.345 176.568 243.699 177.231C244.052 177.894 244.325 178.491 244.516 179.023L242.467 180.143C242.289 179.598 242.029 178.987 241.689 178.311C241.363 177.634 240.982 176.951 240.549 176.262C240.115 175.559 239.676 174.917 239.23 174.335ZM233.664 179.87C233.623 179.724 233.554 179.518 233.458 179.252C233.375 178.973 233.279 178.687 233.17 178.395C233.06 178.089 232.958 177.844 232.862 177.658C233.088 177.589 233.3 177.447 233.498 177.232C233.696 177.016 233.907 176.734 234.13 176.385C234.261 176.211 234.432 175.929 234.642 175.54C234.851 175.151 235.087 174.696 235.348 174.173C235.609 173.637 235.87 173.061 236.131 172.445C236.392 171.829 236.626 171.214 236.833 170.598L239.339 171.234C238.975 172.131 238.564 173.028 238.106 173.926C237.661 174.81 237.196 175.648 236.711 176.44C236.225 177.231 235.745 177.943 235.272 178.574L235.272 178.634C235.272 178.634 235.186 178.675 235.013 178.757C234.854 178.838 234.669 178.947 234.457 179.082C234.258 179.217 234.073 179.359 233.901 179.508C233.742 179.643 233.663 179.763 233.664 179.87ZM233.664 179.87L233.586 177.991L234.878 177.198L242.932 176.578C242.989 176.911 243.066 177.284 243.163 177.696C243.274 178.095 243.37 178.421 243.453 178.673C241.868 178.822 240.536 178.949 239.456 179.053C238.391 179.157 237.512 179.252 236.819 179.339C236.14 179.412 235.594 179.478 235.181 179.535C234.782 179.592 234.469 179.649 234.243 179.704C234.03 179.76 233.837 179.815 233.664 179.87ZM225.801 181.608L227.125 179.995C227.65 180.429 228.214 180.897 228.819 181.398C229.437 181.885 230.049 182.393 230.654 182.92C231.273 183.447 231.845 183.955 232.369 184.443C232.894 184.918 233.332 185.354 233.682 185.75L232.221 187.645C231.897 187.248 231.479 186.792 230.967 186.277C230.456 185.762 229.897 185.234 229.292 184.693C228.7 184.153 228.101 183.619 227.496 183.091C226.891 182.564 226.326 182.069 225.801 181.608ZM225.801 181.608C225.994 180.913 226.193 180.131 226.398 179.262C226.603 178.38 226.793 177.458 226.971 176.496C227.148 175.521 227.305 174.546 227.442 173.571C227.579 172.596 227.676 171.669 227.734 170.788L229.936 170.906C229.851 171.827 229.728 172.795 229.564 173.81C229.414 174.825 229.244 175.84 229.054 176.855C228.864 177.871 228.661 178.839 228.443 179.762C228.225 180.684 228.02 181.519 227.828 182.268L225.801 181.608ZM230.481 173.481L232.621 173.46L232.645 175.9C232.653 176.66 232.627 177.487 232.57 178.381C232.512 179.275 232.381 180.203 232.177 181.165C231.973 182.127 231.663 183.097 231.246 184.074C230.842 185.038 230.291 185.977 229.593 186.891C228.909 187.791 228.044 188.639 226.998 189.436C226.89 189.277 226.735 189.092 226.533 188.881C226.344 188.683 226.142 188.485 225.927 188.287C225.725 188.102 225.537 187.951 225.363 187.832C226.567 186.967 227.511 186.018 228.195 184.984C228.891 183.937 229.407 182.879 229.743 181.809C230.079 180.726 230.289 179.683 230.372 178.683C230.469 177.668 230.513 176.741 230.505 175.901L230.481 173.481ZM225.316 175.052C226.023 175.019 226.822 174.977 227.715 174.929C228.608 174.866 229.547 174.804 230.533 174.741C231.533 174.678 232.532 174.621 233.532 174.571L233.532 176.571C232.133 176.692 230.727 176.806 229.315 176.913C227.902 177.007 226.65 177.099 225.557 177.19L225.316 175.052ZM246.452 176.524L252.752 176.461L252.77 178.301L246.47 178.363L246.452 176.524ZM246.221 179.426L252.8 179.361L252.818 181.181L246.238 181.246L246.221 179.426ZM245.442 173.553L253.122 173.478L253.141 175.417L245.462 175.493L245.442 173.553ZM253.668 174.072L263.767 173.972L263.79 176.232L253.69 176.332L253.668 174.072ZM253.488 186.215L264.267 186.108L264.29 188.368L253.51 188.474L253.488 186.215ZM254.044 179.769L263.344 179.677L263.366 181.877L254.066 181.969L254.044 179.769ZM247.589 182.273L252.828 182.221L252.886 188.041L247.646 188.092L247.629 186.332L250.649 186.303L250.626 184.023L247.606 184.053L247.589 182.273ZM246.569 182.283L248.709 182.262L248.775 189.001L246.635 189.022L246.569 182.283ZM257.378 175.036L259.778 175.012L259.898 187.251L257.499 187.275L257.378 175.036ZM247.801 171.35L249.592 170.452C249.876 170.823 250.153 171.233 250.424 171.684C250.709 172.121 250.912 172.513 251.036 172.858L249.106 173.857C249.009 173.512 248.832 173.107 248.574 172.642C248.329 172.165 248.071 171.734 247.801 171.35ZM256.201 171.287L258.05 170.249C258.442 170.712 258.833 171.228 259.226 171.797C259.631 172.353 259.923 172.844 260.1 173.269L258.132 174.448C257.968 174.023 257.696 173.512 257.317 172.916C256.951 172.32 256.579 171.777 256.201 171.287ZM267.262 171.418L281.282 171.279L281.305 173.639L269.646 173.754L269.797 189.074L267.437 189.097L267.262 171.418ZM279.982 171.292L282.362 171.269L282.51 186.308C282.515 186.828 282.466 187.262 282.363 187.609C282.26 187.957 282.056 188.232 281.751 188.435C281.447 188.639 281.081 188.769 280.655 188.826C280.229 188.884 279.729 188.915 279.156 188.921C279.127 188.708 279.071 188.462 278.989 188.183C278.919 187.903 278.836 187.618 278.74 187.325C278.644 187.046 278.535 186.807 278.413 186.608C278.706 186.619 278.993 186.623 279.273 186.62C279.553 186.617 279.746 186.615 279.853 186.614C279.96 186.613 280.033 186.586 280.072 186.532C280.112 186.478 280.131 186.398 280.13 186.291L279.982 171.292ZM265.414 178.636L284.233 178.45L284.256 180.79L265.437 180.976L265.414 178.636ZM271.53 172.136L273.75 172.114L273.914 188.713L271.694 188.735L271.53 172.136ZM275.71 172.094L277.949 172.072L278.113 188.671L275.873 188.694L275.71 172.094Z" fill="#9491C0"/>
<path d="M93.7274 102.06C94.9711 104.368 93.3219 106.013 91.6707 106.013H84.5207C80.6712 106.013 80.6712 106.563 78.4709 103.27L74.9143 97.2327H65.8221V103.27C65.8221 104.786 64.5901 106.013 63.0708 106.013H54.8207C53.3014 106.013 52.0713 104.786 52.0713 103.27V64.8491C52.0713 63.335 53.3014 62.1055 54.8207 62.1055H81.2203C89.4238 62.1055 96.0713 69.9685 96.0713 79.6691C96.0713 85.8747 93.351 91.3291 89.2415 94.4522L93.7274 102.06Z" fill="#9491C0"/>
<path d="M61.5943 85.3073V83.4233H56.4603C55.8122 83.4233 55.3272 83.2781 55.0031 82.9877C54.6791 82.6972 54.5181 82.3022 54.5181 81.8027C54.5181 81.6749 54.5414 81.5452 54.5899 81.4135C54.6384 81.2818 54.7082 81.1444 54.8052 80.9992C54.9003 80.8539 54.9993 80.7145 55.1021 80.579C55.2049 80.4435 55.3311 80.2789 55.4805 80.0833L60.9016 72.9018C61.2567 72.4294 61.5477 72.0867 61.7767 71.8737C62.0057 71.6607 62.2792 71.5542 62.5994 71.5542C63.6355 71.5542 64.1536 72.1409 64.1536 73.3162V81.156H64.594C65.1198 81.156 65.5409 81.2276 65.8571 81.369C66.1734 81.5103 66.3325 81.8221 66.3325 82.3003C66.3325 82.6914 66.2025 82.978 65.9444 83.1561C65.6844 83.3343 65.2964 83.4253 64.7783 83.4253H64.1536V85.3092C64.1536 85.8301 64.0371 86.2154 63.8062 86.469C63.5734 86.7227 63.2649 86.8485 62.8749 86.8485C62.4849 86.8485 62.1842 86.7188 61.9494 86.4593C61.7146 86.1999 61.5963 85.8165 61.5963 85.3092L61.5943 85.3073ZM57.1957 81.1541H61.5943V75.2698L57.1957 81.1541Z" fill="white"/>
<path d="M83.5954 84.2035H88.9351C89.4667 84.2035 89.8722 84.312 90.1516 84.5269C90.431 84.7438 90.5707 85.0361 90.5707 85.4079C90.5707 85.739 90.4601 86.0197 90.2389 86.2482C90.0178 86.4786 89.6801 86.5929 89.2319 86.5929H81.7036C81.1914 86.5929 80.7936 86.4535 80.5064 86.1727C80.2193 85.8919 80.0776 85.5628 80.0776 85.1852C80.0776 84.9413 80.1688 84.6198 80.3532 84.2171C80.5375 83.8163 80.7393 83.4988 80.9566 83.2703C81.8627 82.339 82.6815 81.5393 83.4111 80.8752C84.1406 80.211 84.6625 79.7734 84.9769 79.5643C85.5357 79.1732 86.0013 78.7802 86.3739 78.3852C86.7464 77.9902 87.0278 77.5855 87.2218 77.1692C87.4158 76.7529 87.5128 76.3463 87.5128 75.9494C87.5128 75.5176 87.4081 75.1303 87.2004 74.7896C86.9928 74.4488 86.7096 74.1835 86.3506 73.9938C85.9916 73.804 85.6016 73.7111 85.1787 73.7111C84.2842 73.7111 83.5837 74.1003 83.0715 74.8767C83.0036 74.9774 82.8891 75.2543 82.7281 75.7073C82.569 76.1604 82.3866 76.507 82.1867 76.751C81.9849 76.993 81.69 77.115 81.302 77.115C80.9605 77.115 80.6791 77.0027 80.4541 76.78C80.229 76.5574 80.1164 76.2534 80.1164 75.8681C80.1164 75.4014 80.2212 74.9154 80.4327 74.4101C80.6442 73.9028 80.9585 73.4439 81.3796 73.0334C81.7987 72.621 82.3303 72.2899 82.9745 72.0362C83.6187 71.7826 84.3734 71.6567 85.2408 71.6567C86.2846 71.6567 87.1733 71.8194 87.9106 72.1427C88.3879 72.3596 88.807 72.6558 89.1679 73.0334C89.5288 73.411 89.8101 73.8486 90.0119 74.3442C90.2137 74.8399 90.3127 75.3549 90.3127 75.8894C90.3127 76.7258 90.1031 77.4887 89.684 78.1741C89.2649 78.8595 88.8361 79.3959 88.3995 79.7851C87.963 80.1742 87.2315 80.7822 86.2051 81.6129C85.1787 82.4435 84.4743 83.0883 84.094 83.5472C83.9311 83.7292 83.7622 83.9499 83.5934 84.2055L83.5954 84.2035Z" fill="white"/>
<path d="M68.4149 77.9458H77.4198C78.0872 77.9458 78.6286 78.486 78.6286 79.1521V79.5935C78.6286 80.2596 78.0872 80.7998 77.4198 80.7998H68.4149C67.7474 80.7998 67.2061 80.2596 67.2061 79.5935V79.1521C67.2061 78.486 67.7474 77.9458 68.4149 77.9458Z" fill="white"/>
<path d="M72.6971 73.6763H73.1356C73.8031 73.6763 74.3444 74.2165 74.3444 74.8825V83.8686C74.3444 84.5347 73.8031 85.0749 73.1356 85.0749H72.699C72.0316 85.0749 71.4902 84.5347 71.4902 83.8686V74.8825C71.4902 74.2165 72.0316 73.6763 72.699 73.6763H72.6971Z" fill="white"/>
<path d="M114.915 97.4942C114.202 97.4942 113.842 97.1385 113.842 96.427V81.048C112.913 82.2635 111.959 83.3604 110.975 84.3425C110.626 84.6686 110.329 84.8205 110.076 84.7909C109.824 84.7612 109.575 84.5463 109.322 84.1386C109.129 83.7903 109.048 83.4975 109.077 83.2567C109.107 83.0158 109.267 82.7712 109.556 82.5192C110.964 81.1889 112.278 79.6658 113.496 77.9537C114.77 76.1601 115.825 74.3221 116.653 72.4321C116.924 71.7948 117.377 71.5761 118.016 71.7688C118.71 71.9986 118.914 72.4544 118.625 73.1288C117.912 74.7112 117.032 76.3195 115.988 77.9574V96.427C115.988 97.1385 115.632 97.4942 114.915 97.4942ZM132.614 97.5239C130.374 97.3497 128.577 95.8748 127.225 93.1029C126.007 90.6163 125.112 86.9736 124.533 82.1783L118.654 82.9306C117.997 83.0084 117.626 82.7082 117.54 82.0338C117.455 81.3593 117.737 80.985 118.394 80.9072L124.303 80.155C124.091 77.6091 123.928 75.1262 123.809 72.699C123.772 71.9689 124.117 71.6021 124.852 71.6021C125.528 71.6021 125.885 71.9578 125.925 72.6693C126.059 75.6562 126.234 78.0575 126.445 79.8659L134.036 78.8839C134.693 78.8061 135.068 79.0988 135.165 79.7659C135.261 80.4292 134.972 80.8109 134.296 80.9072L130.965 81.3408L126.65 81.8892C127.151 85.8989 127.875 89.008 128.822 91.2241C129.825 93.6143 131.061 94.8779 132.528 95.0114C133.107 95.0299 133.542 94.185 133.832 92.4692C133.91 91.8726 134.054 91.3982 134.266 91.0536C134.537 90.6311 134.864 90.5348 135.25 90.7646C135.462 90.9017 135.599 91.1981 135.655 91.6613C135.714 92.0467 135.714 92.4136 135.655 92.7583C135.094 96.0341 134.08 97.6239 132.614 97.5276V97.5239ZM133.193 77.2608C132.981 77.2608 132.777 77.1348 132.584 76.8865C131.696 75.8266 130.616 74.7186 129.338 73.5624C128.759 73.0806 128.777 72.6285 129.398 72.2024C129.821 71.9133 130.207 71.9133 130.556 72.2024C131.232 72.7434 131.938 73.3771 132.669 74.1109C133.382 74.8261 133.887 75.3449 134.177 75.671C134.389 75.9415 134.47 76.1713 134.422 76.364C134.374 76.5567 134.207 76.7531 133.913 76.9569C133.624 77.157 133.382 77.2608 133.189 77.2608H133.193Z" fill="#9491C0"/>
<path d="M145.589 77.6943C145.009 77.6943 144.72 77.3979 144.72 76.7975C144.72 76.1972 145.009 75.9304 145.589 75.9304H152.366C152.945 75.9304 153.235 76.2194 153.235 76.7975C153.235 77.3756 152.945 77.6943 152.366 77.6943H145.589ZM147.471 95.8452C146.97 95.8452 146.565 95.6895 146.253 95.3819C145.945 95.0744 145.789 94.6704 145.789 94.1664V89.1933C145.789 88.693 145.945 88.2891 146.253 87.9778C146.562 87.6702 146.966 87.5146 147.471 87.5146H151.033C151.534 87.5146 151.931 87.6591 152.221 87.9482C152.511 88.2372 152.656 88.6337 152.656 89.134V94.1627C152.656 94.663 152.5 95.0706 152.191 95.3782C151.883 95.6858 151.478 95.8414 150.973 95.8414H147.468L147.471 95.8452ZM146.692 81.5372C146.131 81.5372 145.852 81.2482 145.852 80.6701C145.852 80.092 146.131 79.8326 146.692 79.8326H151.761C152.321 79.8326 152.6 80.1105 152.6 80.6701C152.6 81.2296 152.321 81.5372 151.761 81.5372H146.692ZM146.721 85.3838C146.142 85.3838 145.852 85.0947 145.852 84.5166C145.852 83.9385 146.142 83.6495 146.721 83.6495H151.731C152.31 83.6495 152.6 83.9385 152.6 84.5166C152.6 85.0947 152.31 85.3838 151.731 85.3838H146.721ZM146.836 73.8774C146.257 73.8774 145.967 73.5884 145.967 73.0103C145.967 72.4322 146.257 72.1431 146.836 72.1431H151.675C152.254 72.1431 152.544 72.4322 152.544 73.0103C152.544 73.5884 152.254 73.8774 151.675 73.8774H146.836ZM148.08 94.1109H150.283C150.687 94.1109 150.892 93.907 150.892 93.5031V89.89C150.892 89.4861 150.687 89.2823 150.283 89.2823H148.08C147.676 89.2823 147.471 89.4824 147.471 89.89V93.5031C147.471 93.907 147.676 94.1109 148.08 94.1109ZM158.334 97.5498C157.524 97.5498 157.03 97.3089 156.856 96.8272C156.7 96.4418 156.77 96.1639 157.06 95.9897C157.29 95.8155 157.65 95.7377 158.133 95.7599H159.466C159.815 95.7599 159.986 95.5783 159.986 95.2115V89.575C158.46 91.5391 156.733 93.2548 154.802 94.7186C154.282 95.104 153.807 95.0447 153.383 94.5444C152.882 93.9663 152.96 93.4661 153.614 93.0399C155.641 91.5761 157.368 89.9085 158.798 88.0408L154.423 88.9932C153.803 89.1488 153.428 88.9339 153.294 88.3595C153.12 87.7036 153.361 87.3367 154.018 87.2626C154.078 87.2441 154.148 87.2256 154.234 87.2033C154.319 87.1848 154.382 87.1737 154.423 87.1737V75.7266C154.423 75.2263 154.579 74.8224 154.887 74.5111C155.196 74.2035 155.6 74.0479 156.105 74.0479H156.685C156.915 73.3364 157.101 72.6656 157.234 72.0393C157.368 71.4131 157.765 71.1685 158.423 71.3019C159.158 71.4575 159.388 71.88 159.117 72.573C159.039 72.8027 158.913 73.1511 158.742 73.6143C158.664 73.807 158.608 73.9515 158.567 74.0479H161.059C161.542 74.0479 161.783 74.2887 161.783 74.7705V84.3388L162.537 84.5685C162.886 84.7056 162.983 84.9243 162.827 85.2319C162.537 85.81 162.192 86.4251 161.783 87.081V95.2041C161.783 96.2231 161.464 96.8902 160.829 97.1978C160.346 97.3905 159.514 97.5053 158.337 97.5461L158.334 97.5498ZM156.191 78.0686H159.986V76.3047C159.986 75.9007 159.782 75.6969 159.377 75.6969H156.8C156.395 75.6969 156.191 75.897 156.191 76.3047V78.0686ZM156.191 82.1153H159.986V79.7177H156.191V82.1153ZM156.191 86.855C156.982 86.6993 158.248 86.451 159.986 86.1027V83.7903H156.191V86.855ZM165.749 97.6091C164.899 97.6091 164.387 97.3386 164.216 96.8012C164.082 96.3973 164.156 96.0897 164.446 95.8748C164.695 95.7006 165.074 95.6228 165.575 95.645H166.938C167.287 95.6265 167.458 95.4338 167.458 95.0669V80.2402H163.343C162.686 80.2402 162.359 79.903 162.359 79.2285C162.359 78.5541 162.686 78.2465 163.343 78.2465H167.458V72.3803C167.458 71.7244 167.784 71.3982 168.442 71.3982C169.099 71.3982 169.426 71.7244 169.426 72.3803V78.2465H170.035C170.692 78.2465 171.019 78.5726 171.019 79.2285C171.019 79.8844 170.692 80.2402 170.035 80.2402H169.426V95.041C169.426 95.6562 169.344 96.1342 169.181 96.4714C169.017 96.8087 168.743 97.0532 168.356 97.2089C167.933 97.4201 167.064 97.5572 165.749 97.6128V97.6091ZM164.84 89.8344C164.676 89.7566 164.583 89.5639 164.565 89.2563C164.39 87.5776 163.985 85.7877 163.347 83.8792C163.154 83.3382 163.347 82.9936 163.926 82.8379C164.409 82.7231 164.736 82.8861 164.91 83.3308C165.237 84.2758 165.523 85.2541 165.764 86.2658C166.006 87.2774 166.165 88.1779 166.243 88.9673C166.303 89.4305 166.08 89.7195 165.579 89.8344C165.252 89.9122 165.003 89.9122 164.84 89.8344Z" fill="#9491C0"/>
<path d="M180.321 78.8799C179.838 78.3982 179.935 77.8868 180.611 77.3495C182.308 75.8449 183.719 74.0736 184.841 72.0317C184.956 71.8019 185.167 71.5981 185.479 71.424C185.788 71.2498 186.118 71.1646 186.463 71.1646H186.549C187.091 71.1646 187.563 71.3387 187.967 71.6834C189.531 73.0693 190.834 74.3997 191.878 75.6708C192.052 75.882 192.119 76.0858 192.082 76.2785C192.045 76.4341 191.926 76.6268 191.733 76.8566C191.48 77.1642 191.261 77.3309 191.068 77.3495C190.857 77.3902 190.645 77.2642 190.429 76.9752C188.981 75.1631 187.715 73.7845 186.634 72.8433C185.958 74.0365 185.156 75.1853 184.232 76.2822H188.925C189.445 76.2822 189.709 76.5416 189.709 77.0641C189.709 77.5866 189.449 77.872 188.925 77.872H184.87C184.562 77.872 184.31 77.7756 184.116 77.5829C183.923 77.3902 183.827 77.1382 183.827 76.8307V76.7454C183.266 77.4013 182.583 78.0943 181.77 78.8281C181.227 79.2728 180.745 79.2913 180.321 78.8874V78.8799ZM182.928 97.5496C182.308 97.5496 182 97.2494 182 96.6528V81.1886C182 80.6884 182.156 80.2807 182.464 79.9732C182.772 79.6656 183.177 79.5099 183.682 79.5099H189.36C189.861 79.5099 190.266 79.6656 190.578 79.9732C190.886 80.2807 191.042 80.6884 191.042 81.1886V85.8987C191.042 86.3989 190.886 86.8066 190.578 87.1142C190.27 87.4217 189.865 87.5774 189.36 87.5774H183.827V89.371H190.285C190.845 89.371 191.124 89.6526 191.124 90.2085C191.124 90.7643 190.845 91.046 190.285 91.046H183.827V92.9804H190.574C191.135 92.9804 191.414 93.262 191.414 93.8179C191.414 94.3737 191.135 94.6554 190.574 94.6554H183.827V96.6491C183.827 97.2457 183.526 97.5459 182.928 97.5459V97.5496ZM183.823 82.8081H189.211V81.6222C189.211 81.2183 189.007 81.0145 188.602 81.0145H184.432C184.027 81.0145 183.823 81.2146 183.823 81.6222V82.8081ZM183.823 86.0765H188.602C189.007 86.0765 189.211 85.8727 189.211 85.4688V84.2274H183.823V86.0765ZM191.094 96.7417C190.864 96.4341 190.842 96.0858 191.035 95.7004C191.191 95.3928 191.458 95.1038 191.844 94.8333C194.046 93.1175 195.658 90.7754 196.683 87.8108C197.34 85.8245 197.667 83.9198 197.667 82.0891V78.3018H195.409C194.811 80.1696 194.124 81.7816 193.352 83.1305C193.14 83.4566 192.929 83.6419 192.713 83.6789C192.502 83.7197 192.238 83.6418 191.93 83.4491C191.581 83.2379 191.384 83.0304 191.336 82.8266C191.287 82.6228 191.369 82.3597 191.581 82.0336C193.01 79.6433 194.061 76.3971 194.737 72.2911C194.871 71.5203 195.279 71.1942 195.955 71.3091C196.631 71.424 196.91 71.8205 196.794 72.4949C196.583 73.6696 196.301 74.9518 195.955 76.3378H204.355C204.916 76.3378 205.324 76.5083 205.588 76.8455C205.848 77.1827 205.922 77.6496 205.803 78.2463C205.38 80.3474 204.886 82.1299 204.325 83.5937C204.151 84.0161 203.794 84.1236 203.256 83.9124C202.714 83.7011 202.513 83.3713 202.647 82.9303C203.052 81.6593 203.431 80.1177 203.776 78.3056H199.75V82.0928C199.75 83.8457 200.077 85.7245 200.735 87.7293C201.7 90.7162 203.208 93.0582 205.254 94.7554C205.622 95.026 205.863 95.3224 205.978 95.6522C206.112 96.0191 206.075 96.3563 205.863 96.6639C205.651 96.9529 205.369 97.0975 205.024 97.0975C204.715 97.0789 204.396 96.9529 204.069 96.7232C202.409 95.3558 201.076 93.5325 200.073 91.2609C199.338 89.623 198.885 88.0443 198.711 86.5212C198.518 88.0443 198.024 89.623 197.233 91.2609C196.133 93.514 194.685 95.3447 192.888 96.7528C192.097 97.2939 191.499 97.2939 191.09 96.7528L191.094 96.7417Z" fill="#9491C0"/>
<path d="M216.238 81.0184C215.755 80.3625 215.948 79.8437 216.817 79.4583C218.826 78.4577 220.731 77.2719 222.536 75.9044C224.341 74.537 225.804 73.1696 226.926 71.7984C227.275 71.3352 227.806 71.1055 228.519 71.1055H228.604C229.239 71.1055 229.763 71.3278 230.168 71.7688C231.575 73.2548 233.227 74.6593 235.121 75.9897C236.993 77.2793 238.887 78.3502 240.799 79.1989C241.65 79.5472 241.813 80.0845 241.293 80.8183C240.907 81.3371 240.424 81.4631 239.845 81.1963C237.643 80.1364 235.441 78.7986 233.239 77.1792V77.9908C233.239 78.4132 233.027 78.6245 232.604 78.6245H225.592C225.188 78.6245 224.865 78.5059 224.623 78.265C224.382 78.0241 224.263 77.7017 224.263 77.2978V77.2126C222.079 78.8913 219.9 80.2661 217.716 81.3445C217.096 81.6335 216.606 81.5298 216.238 81.0258V81.0184ZM239.351 97.3497C233.692 96.175 229.752 93.592 227.535 89.6046H222.696V94.7779L229.154 94.1442C229.83 94.0849 230.168 94.3851 230.168 95.041C230.168 95.6376 229.859 95.9674 229.239 96.023C227.46 96.2157 224.894 96.4936 221.534 96.8605C220.122 97.0162 219.109 97.1199 218.492 97.1792C218.184 97.1977 217.961 97.1385 217.827 97.005C217.694 96.8679 217.605 96.6382 217.568 96.3121C217.452 95.6376 217.731 95.2707 218.407 95.2152L220.639 94.9854V81.9189C220.639 81.4186 220.795 81.0147 221.103 80.7034C221.411 80.3921 221.816 80.2402 222.321 80.2402H235.211C235.712 80.2402 236.117 80.3958 236.429 80.7034C236.74 81.011 236.893 81.4149 236.893 81.9189V89.6083C237.145 89.4527 237.502 89.2341 237.966 88.945C238.081 88.8672 238.166 88.8116 238.226 88.7708C238.594 88.4818 238.998 88.4818 239.444 88.7708C240.101 89.2341 240.101 89.6788 239.444 90.1012C237.513 91.3167 235.589 92.3469 233.681 93.1955C235.418 94.1775 237.513 94.9187 239.968 95.4227C241.126 95.6154 241.434 96.1082 240.896 96.8976C240.606 97.3423 240.094 97.4942 239.362 97.3608L239.351 97.3497ZM222.696 84.0534H234.802V82.434C234.802 82.0301 234.598 81.8262 234.193 81.8262H223.301C222.896 81.8262 222.692 82.0301 222.692 82.434V84.0534H222.696ZM222.696 87.9556H234.802V85.5839H222.696V87.9556ZM224.434 77.0569H233.064C231.23 75.6524 229.752 74.3109 228.634 73.0399C227.494 74.4258 226.094 75.7673 224.434 77.0569ZM232.169 92.1764C233.944 91.3278 235.508 90.4718 236.859 89.6046H229.733C230.331 90.5311 231.14 91.3871 232.165 92.1764H232.169Z" fill="#9491C0"/>
<path d="M255.892 83.0974C255.216 82.6935 254.648 82.3859 254.183 82.171C253.719 81.9227 253.036 81.604 252.126 81.2186C251.432 80.9703 251.294 80.5256 251.721 79.8882C252.011 79.425 252.416 79.2805 252.939 79.4546C254.659 80.0735 256.066 80.7183 257.169 81.3927C257.44 81.5669 257.585 81.7596 257.603 81.9708C257.603 82.1635 257.518 82.4155 257.344 82.7231C256.939 83.3605 256.456 83.4828 255.895 83.0974H255.892ZM252.936 96.453C252.356 96.0083 252.241 95.5265 252.586 95.0077C253.244 93.9479 253.92 92.7917 254.614 91.5391C255.386 90.1532 256.073 88.8524 256.671 87.637C257.02 86.8847 257.511 86.7809 258.149 87.3183C258.595 87.6851 258.692 88.1372 258.439 88.6783C257.124 91.3575 255.795 93.87 254.443 96.2232C254.076 96.8606 253.574 96.9347 252.939 96.453H252.936ZM257.34 75.4376C256.76 75.0522 256.207 74.7075 255.676 74.3963C255.145 74.0887 254.454 73.7403 253.604 73.3549C252.91 73.0659 252.794 72.6138 253.255 71.9949C253.582 71.5317 253.998 71.4057 254.499 71.6206C256.237 72.3322 257.637 73.0659 258.699 73.8182C258.97 74.0109 259.104 74.2147 259.104 74.4259C259.104 74.6001 259.007 74.8298 258.814 75.1189C258.391 75.7563 257.897 75.86 257.336 75.4376H257.34ZM275.064 96.5382C274.853 96.0935 274.6 95.6229 274.311 95.1226C271.414 95.3523 267.244 95.6525 261.796 96.0194C260.927 96.0787 260.288 96.1157 259.884 96.1343C259.575 96.1528 259.341 96.0861 259.189 95.9342C259.052 95.7785 258.966 95.5302 258.929 95.1819C258.814 94.4296 259.133 94.0368 259.884 93.996L261.131 93.9368C262.405 91.3538 263.553 88.4559 264.577 85.2356H259.739C259.063 85.2356 258.725 84.8873 258.725 84.1943C258.725 83.5013 259.063 83.1826 259.739 83.1826H266.69V77.8945H261.157C260.481 77.8945 260.144 77.5573 260.144 76.8828C260.144 76.2084 260.481 75.8712 261.157 75.8712H266.69V72.2284C266.69 71.5169 267.058 71.1611 267.79 71.1611C268.521 71.1611 268.859 71.5169 268.859 72.2284V75.8712H274.652C275.328 75.8712 275.666 76.2084 275.666 76.8828C275.666 77.5573 275.328 77.8945 274.652 77.8945H268.859V83.1826H276.015C276.691 83.1826 277.029 83.5198 277.029 84.1943C277.029 84.8687 276.691 85.2356 276.015 85.2356H267.092C265.625 88.9933 264.399 91.8467 263.411 93.7922C266.442 93.6366 269.698 93.4439 273.174 93.2141C272.227 91.7874 271.473 90.709 270.916 89.9753C270.452 89.3787 270.56 88.9043 271.236 88.5597C271.756 88.2706 272.201 88.3596 272.569 88.8191C274.597 91.2871 276.123 93.5773 277.144 95.697C277.278 96.0046 277.3 96.2566 277.203 96.4493C277.125 96.6049 276.925 96.7754 276.594 96.9681C275.859 97.372 275.35 97.2275 275.061 96.5345L275.064 96.5382Z" fill="#9491C0"/>
<path d="M76.1593 20.9135L108.055 20.9135L108.055 24.6935L76.1593 24.6935L76.1593 20.9135ZM92.2873 27.3935L105.751 27.3935L105.751 31.1375L92.2873 31.1375L92.2873 27.3935ZM90.2713 22.8575L94.6633 22.8575L94.6633 36.1775L90.2713 36.1775L90.2713 22.8575ZM84.7273 28.5815C85.3993 30.3335 86.3353 31.6535 87.5353 32.5415C88.7353 33.4055 90.1753 33.9815 91.8553 34.2695C93.5593 34.5575 95.4553 34.7135 97.5433 34.7375C97.9513 34.7375 98.5153 34.7375 99.2353 34.7375C99.9793 34.7375 100.807 34.7375 101.719 34.7375C102.631 34.7375 103.543 34.7375 104.455 34.7375C105.391 34.7135 106.267 34.7015 107.083 34.7015C107.899 34.6775 108.571 34.6535 109.099 34.6295C108.883 34.9655 108.679 35.3735 108.487 35.8535C108.295 36.3335 108.115 36.8255 107.947 37.3295C107.803 37.8575 107.695 38.3375 107.623 38.7695L105.463 38.7695L97.3273 38.7695C95.2393 38.7695 93.3553 38.6495 91.6753 38.4095C90.0193 38.1695 88.5313 37.7255 87.2113 37.0775C85.8913 36.4535 84.7273 35.5535 83.7193 34.3775C82.7353 33.1775 81.8713 31.6415 81.1273 29.7695L84.7273 28.5815ZM81.5953 25.4495L85.8793 26.0615C85.3033 29.0375 84.3553 31.6535 83.0353 33.9095C81.7393 36.1415 80.1073 37.9655 78.1393 39.3815C77.9233 39.1175 77.6113 38.7935 77.2033 38.4095C76.8193 38.0255 76.4113 37.6415 75.9793 37.2575C75.5713 36.8735 75.1993 36.5735 74.8633 36.3575C76.7113 35.2295 78.1873 33.7295 79.2913 31.8575C80.3953 29.9855 81.1633 27.8495 81.5953 25.4495ZM83.6833 14.4335L83.6833 16.2335L100.207 16.2335L100.207 14.4335L83.6833 14.4335ZM83.6833 9.82547L83.6833 11.5895L100.207 11.5895L100.207 9.82547L83.6833 9.82547ZM79.5073 6.72947L104.599 6.72947L104.599 19.2935L79.5073 19.2935L79.5073 6.72947ZM118.495 34.2335L137.539 34.2335L137.539 37.9775L118.495 37.9775L118.495 34.2335ZM115.975 25.0535L140.491 25.0535L140.491 39.2735L135.775 39.2735L135.775 28.7975L120.439 28.7975L120.439 39.3095L115.975 39.3095L115.975 25.0535ZM112.231 7.30547L143.911 7.30547L143.911 11.3375L112.231 11.3375L112.231 7.30547ZM128.791 8.74547L133.111 10.6175C131.599 12.5855 129.799 14.3975 127.711 16.0535C125.623 17.6855 123.391 19.1375 121.015 20.4095C118.639 21.6815 116.251 22.7615 113.851 23.6495C113.635 23.3135 113.335 22.9055 112.951 22.4255C112.591 21.9215 112.219 21.4295 111.835 20.9495C111.451 20.4455 111.103 20.0495 110.791 19.7615C113.191 19.0415 115.519 18.1535 117.775 17.0975C120.055 16.0175 122.143 14.7695 124.039 13.3535C125.959 11.9375 127.543 10.4015 128.791 8.74547ZM130.951 16.7735L134.083 13.9295C135.355 14.4335 136.675 15.0455 138.043 15.7655C139.435 16.4855 140.743 17.2175 141.967 17.9615C143.215 18.6815 144.271 19.3655 145.135 20.0135L142.003 23.2175C141.163 22.5455 140.119 21.8255 138.871 21.0575C137.623 20.2655 136.315 19.4975 134.947 18.7535C133.579 17.9855 132.247 17.3255 130.951 16.7735ZM125.803 15.2615L130.159 10.9055L130.195 10.9775L130.195 24.0455L125.803 24.0455L125.803 15.2615ZM159.391 8.85347L180.523 8.85347L180.523 12.3095L159.391 12.3095L159.391 8.85347ZM167.059 5.54147L171.091 6.04547C170.323 9.98147 169.039 13.2935 167.239 15.9815C165.463 18.6695 163.063 20.8175 160.039 22.4255C159.895 22.1375 159.667 21.7895 159.355 21.3815C159.067 20.9495 158.755 20.5295 158.419 20.1215C158.083 19.7135 157.783 19.3775 157.519 19.1135C160.255 17.8655 162.391 16.1135 163.927 13.8575C165.463 11.5775 166.507 8.80547 167.059 5.54147ZM173.503 11.0855C173.983 12.2135 174.619 13.2935 175.411 14.3255C176.227 15.3575 177.151 16.2815 178.183 17.0975C179.215 17.9135 180.319 18.5855 181.495 19.1135C181.039 19.4735 180.547 19.9655 180.019 20.5895C179.515 21.2135 179.119 21.7775 178.831 22.2815C177.559 21.5855 176.371 20.7215 175.267 19.6895C174.187 18.6575 173.215 17.4935 172.351 16.1975C171.511 14.8775 170.791 13.5095 170.191 12.0935L173.503 11.0855ZM165.259 24.6575L165.259 26.3495L173.611 26.3495L173.611 24.6575L165.259 24.6575ZM165.259 20.3015L165.259 21.9575L173.611 21.9575L173.611 20.3015L165.259 20.3015ZM161.551 17.4575L177.499 17.4575L177.499 29.1935L161.551 29.1935L161.551 17.4575ZM167.527 28.0415L171.559 28.0415L171.559 35.2415C171.559 36.1295 171.463 36.8495 171.271 37.4015C171.079 37.9535 170.683 38.3855 170.083 38.6975C169.483 39.0095 168.799 39.1895 168.031 39.2375C167.263 39.3095 166.375 39.3455 165.367 39.3455C165.295 38.7695 165.127 38.1215 164.863 37.4015C164.623 36.6815 164.371 36.0455 164.107 35.4935C164.707 35.5175 165.283 35.5415 165.835 35.5655C166.411 35.5655 166.807 35.5655 167.023 35.5655C167.215 35.5415 167.347 35.5055 167.419 35.4575C167.491 35.4095 167.527 35.3015 167.527 35.1335L167.527 28.0415ZM161.803 30.2375L165.619 31.3175C164.923 32.6375 164.059 33.9575 163.027 35.2775C161.995 36.5735 160.975 37.6535 159.967 38.5175C159.727 38.3015 159.403 38.0375 158.995 37.7255C158.611 37.4375 158.203 37.1495 157.771 36.8615C157.363 36.5975 157.003 36.3815 156.691 36.2135C157.699 35.4455 158.659 34.5335 159.571 33.4775C160.507 32.3975 161.251 31.3175 161.803 30.2375ZM172.999 31.6775L176.275 29.9495C176.875 30.5735 177.499 31.2695 178.147 32.0375C178.795 32.8055 179.395 33.5615 179.947 34.3055C180.499 35.0495 180.931 35.7215 181.243 36.3215L177.751 38.2655C177.463 37.6895 177.055 37.0175 176.527 36.2495C176.023 35.4815 175.459 34.7015 174.835 33.9095C174.235 33.0935 173.623 32.3495 172.999 31.6775ZM158.995 14.7935L161.407 12.6695C162.079 13.1495 162.775 13.7135 163.495 14.3615C164.239 15.0095 164.815 15.5975 165.223 16.1255L162.703 18.4295C162.343 17.9015 161.803 17.3015 161.083 16.6295C160.363 15.9335 159.667 15.3215 158.995 14.7935ZM177.787 12.8135L180.811 14.7575C180.067 15.3815 179.335 15.9815 178.615 16.5575C177.919 17.1335 177.283 17.6255 176.707 18.0335L174.439 16.4495C174.991 15.9935 175.579 15.4175 176.203 14.7215C176.851 14.0015 177.379 13.3655 177.787 12.8135ZM150.499 8.34947L158.635 8.34947L158.635 32.6135L150.499 32.6135L150.499 28.8335L154.855 28.8335L154.855 12.1295L150.499 12.1295L150.499 8.34947ZM150.643 18.5015L156.727 18.5015L156.727 22.2095L150.643 22.2095L150.643 18.5015ZM148.375 8.34947L152.119 8.34947L152.119 35.4215L148.375 35.4215L148.375 8.34947ZM187.183 14.7935L197.191 14.7935L197.191 17.9615L187.183 17.9615L187.183 14.7935ZM187.183 20.6615L197.191 20.6615L197.191 23.7215L187.183 23.7215L187.183 20.6615ZM187.183 26.7095L197.191 26.7095L197.191 29.8775L187.183 29.8775L187.183 26.7095ZM202.807 22.6055L216.343 22.6055L216.343 26.2415L202.807 26.2415L202.807 22.6055ZM188.983 8.85347L194.671 8.85347L194.671 12.1295L188.983 12.1295L188.983 8.85347ZM200.071 7.34147L213.463 7.34147L213.463 10.9055L200.071 10.9055L200.071 7.34147ZM200.107 29.5175L217.063 29.5175L217.063 33.2255L200.107 33.2255L200.107 29.5175ZM206.803 19.3655L210.907 19.3655L210.907 39.2015L206.803 39.2015L206.803 19.3655ZM191.107 16.4495L193.951 16.4495L193.951 27.8975L191.107 27.8975L191.107 16.4495ZM212.311 7.34147L216.127 7.34147C216.127 7.34147 216.115 7.52147 216.091 7.88147C216.091 8.21747 216.079 8.50547 216.055 8.74547C216.007 10.6415 215.935 12.2135 215.839 13.4615C215.743 14.7095 215.611 15.6935 215.443 16.4135C215.275 17.1335 215.059 17.6495 214.795 17.9615C214.507 18.3215 214.183 18.5855 213.823 18.7535C213.463 18.9215 213.055 19.0535 212.599 19.1495C212.191 19.1975 211.663 19.2335 211.015 19.2575C210.367 19.2575 209.671 19.2455 208.927 19.2215C208.903 18.6695 208.807 18.0695 208.639 17.4215C208.471 16.7495 208.243 16.1855 207.955 15.7295C208.531 15.7775 209.047 15.8135 209.503 15.8375C209.959 15.8615 210.307 15.8735 210.547 15.8735C210.763 15.8735 210.943 15.8615 211.087 15.8375C211.255 15.7895 211.399 15.6815 211.519 15.5135C211.663 15.3455 211.783 14.9975 211.879 14.4695C211.975 13.9175 212.059 13.1135 212.131 12.0575C212.203 11.0015 212.263 9.60947 212.311 7.88147L212.311 7.34147ZM202.051 19.6175L205.579 20.3375C205.267 21.9695 204.823 23.5655 204.247 25.1255C203.695 26.6855 203.071 27.9935 202.375 29.0495C202.135 28.8815 201.823 28.6895 201.439 28.4735C201.055 28.2575 200.659 28.0535 200.251 27.8615C199.843 27.6695 199.495 27.5135 199.207 27.3935C199.903 26.4335 200.491 25.2575 200.971 23.8655C201.451 22.4735 201.811 21.0575 202.051 19.6175ZM188.119 5.46947L191.971 6.33347C191.515 7.96547 190.975 9.57347 190.351 11.1575C189.727 12.7415 189.031 14.2175 188.263 15.5855C187.519 16.9535 186.715 18.1535 185.851 19.1855C185.635 18.9695 185.335 18.7055 184.951 18.3935C184.567 18.0575 184.183 17.7335 183.799 17.4215C183.415 17.0855 183.067 16.8335 182.755 16.6655C183.979 15.3215 185.059 13.6655 185.995 11.6975C186.931 9.70547 187.639 7.62947 188.119 5.46947ZM185.599 14.7935L189.055 14.7935L189.055 24.3335C189.055 25.4855 189.007 26.7215 188.911 28.0415C188.839 29.3615 188.695 30.7055 188.479 32.0735C188.287 33.4175 187.987 34.7255 187.579 35.9975C187.171 37.2455 186.631 38.3855 185.959 39.4175C185.767 39.2015 185.479 38.9615 185.095 38.6975C184.735 38.4575 184.351 38.2175 183.943 37.9775C183.559 37.7615 183.223 37.5935 182.935 37.4735C183.751 36.2255 184.351 34.8455 184.735 33.3335C185.119 31.7975 185.359 30.2495 185.455 28.6895C185.551 27.1055 185.599 25.6415 185.599 24.2975L185.599 14.7935ZM196.003 14.7935L199.567 14.7935L199.567 35.1695C199.567 36.0335 199.471 36.7415 199.279 37.2935C199.087 37.8455 198.715 38.2775 198.163 38.5895C197.611 38.9015 196.951 39.0935 196.183 39.1655C195.415 39.2615 194.467 39.3095 193.339 39.3095C193.291 38.7815 193.135 38.1575 192.871 37.4375C192.631 36.7175 192.379 36.1175 192.115 35.6375C192.835 35.6615 193.507 35.6855 194.131 35.7095C194.755 35.7095 195.187 35.7095 195.427 35.7095C195.643 35.7095 195.787 35.6735 195.859 35.6015C195.955 35.5055 196.003 35.3375 196.003 35.0975L196.003 14.7935ZM204.427 8.52947L208.279 8.52947C208.135 10.2815 207.847 11.9015 207.415 13.3895C207.007 14.8535 206.323 16.1615 205.363 17.3135C204.403 18.4655 203.035 19.4375 201.259 20.2295C201.043 19.7735 200.707 19.2455 200.251 18.6455C199.819 18.0455 199.399 17.5895 198.991 17.2775C200.431 16.6775 201.511 15.9455 202.231 15.0815C202.975 14.2175 203.491 13.2335 203.779 12.1295C204.091 11.0255 204.307 9.82547 204.427 8.52947ZM193.627 8.85347L194.455 8.85347L194.995 8.70947L197.479 10.2215C197.071 11.3735 196.555 12.5975 195.931 13.8935C195.307 15.1655 194.719 16.2575 194.167 17.1695C193.807 16.9055 193.363 16.6175 192.835 16.3055C192.331 15.9935 191.887 15.7415 191.503 15.5495C191.791 14.9735 192.067 14.3375 192.331 13.6415C192.619 12.9215 192.871 12.2015 193.087 11.4815C193.327 10.7375 193.507 10.0895 193.627 9.53747L193.627 8.85347ZM233.335 26.8535C233.215 25.8935 233.287 25.0535 233.551 24.3335C233.839 23.6135 234.235 22.9655 234.739 22.3895C235.267 21.8135 235.843 21.2855 236.467 20.8055C237.115 20.3255 237.715 19.8575 238.267 19.4015C238.843 18.9455 239.311 18.4775 239.671 17.9975C240.031 17.5175 240.211 16.9895 240.211 16.4135C240.211 15.6935 240.031 15.0815 239.671 14.5775C239.311 14.0735 238.783 13.6895 238.087 13.4255C237.415 13.1615 236.599 13.0295 235.639 13.0295C234.535 13.0295 233.527 13.2695 232.615 13.7495C231.703 14.2295 230.803 14.9375 229.915 15.8735L226.963 13.1375C228.115 11.8175 229.471 10.7615 231.031 9.96947C232.615 9.15347 234.355 8.74547 236.251 8.74547C238.003 8.74547 239.551 9.00947 240.895 9.53747C242.263 10.0655 243.331 10.8695 244.099 11.9495C244.891 13.0055 245.287 14.3375 245.287 15.9455C245.287 16.8335 245.095 17.6135 244.711 18.2855C244.351 18.9335 243.871 19.5215 243.271 20.0495C242.695 20.5535 242.083 21.0455 241.435 21.5255C240.787 21.9815 240.187 22.4615 239.635 22.9655C239.083 23.4695 238.651 24.0335 238.339 24.6575C238.027 25.2815 237.907 26.0135 237.979 26.8535L233.335 26.8535ZM235.675 36.4295C234.763 36.4295 234.007 36.1295 233.407 35.5295C232.807 34.9295 232.507 34.1735 232.507 33.2615C232.507 32.3255 232.807 31.5575 233.407 30.9575C234.007 30.3575 234.763 30.0575 235.675 30.0575C236.587 30.0575 237.343 30.3575 237.943 30.9575C238.543 31.5575 238.843 32.3255 238.843 33.2615C238.843 34.1735 238.543 34.9295 237.943 35.5295C237.343 36.1295 236.587 36.4295 235.675 36.4295Z" fill="#9491C0"/>
</svg>
